# Tiled2Unity generated file. Do not modify by hand.
# Wavefront file for 'avMap_mesh_0007.obj'

# Vertices (Count = 336)
v -736 -192 0
v -800 -192 0
v -800 -128 0
v -736 -128 0
v -2080 -192 0
v -2144 -192 0
v -2144 -128 0
v -2080 -128 0
v -736 -256 0
v -800 -256 0
v -800 -192 0
v -736 -192 0
v -2080 -256 0
v -2144 -256 0
v -2144 -192 0
v -2080 -192 0
v -736 -320 0
v -800 -320 0
v -800 -256 0
v -736 -256 0
v -2080 -320 0
v -2144 -320 0
v -2144 -256 0
v -2080 -256 0
v -736 -384 0
v -800 -384 0
v -800 -320 0
v -736 -320 0
v -2080 -384 0
v -2144 -384 0
v -2144 -320 0
v -2080 -320 0
v -736 -448 0
v -800 -448 0
v -800 -384 0
v -736 -384 0
v -2080 -448 0
v -2144 -448 0
v -2144 -384 0
v -2080 -384 0
v -736 -512 0
v -800 -512 0
v -800 -448 0
v -736 -448 0
v -2080 -512 0
v -2144 -512 0
v -2144 -448 0
v -2080 -448 0
v -736 -576 0
v -800 -576 0
v -800 -512 0
v -736 -512 0
v -2080 -576 0
v -2144 -576 0
v -2144 -512 0
v -2080 -512 0
v -736 -640 0
v -800 -640 0
v -800 -576 0
v -736 -576 0
v -2080 -640 0
v -2144 -640 0
v -2144 -576 0
v -2080 -576 0
v -736 -704 0
v -800 -704 0
v -800 -640 0
v -736 -640 0
v -2080 -704 0
v -2144 -704 0
v -2144 -640 0
v -2080 -640 0
v -736 -768 0
v -800 -768 0
v -800 -704 0
v -736 -704 0
v -2080 -768 0
v -2144 -768 0
v -2144 -704 0
v -2080 -704 0
v -736 -832 0
v -800 -832 0
v -800 -768 0
v -736 -768 0
v -2080 -832 0
v -2144 -832 0
v -2144 -768 0
v -2080 -768 0
v -736 -896 0
v -800 -896 0
v -800 -832 0
v -736 -832 0
v -2080 -896 0
v -2144 -896 0
v -2144 -832 0
v -2080 -832 0
v -736 -960 0
v -800 -960 0
v -800 -896 0
v -736 -896 0
v -2080 -960 0
v -2144 -960 0
v -2144 -896 0
v -2080 -896 0
v -736 -1024 0
v -800 -1024 0
v -800 -960 0
v -736 -960 0
v -2080 -1024 0
v -2144 -1024 0
v -2144 -960 0
v -2080 -960 0
v -736 -1088 0
v -800 -1088 0
v -800 -1024 0
v -736 -1024 0
v -2080 -1088 0
v -2144 -1088 0
v -2144 -1024 0
v -2080 -1024 0
v -736 -1152 0
v -800 -1152 0
v -800 -1088 0
v -736 -1088 0
v -2080 -1152 0
v -2144 -1152 0
v -2144 -1088 0
v -2080 -1088 0
v -736 -1216 0
v -800 -1216 0
v -800 -1152 0
v -736 -1152 0
v -2080 -1216 0
v -2144 -1216 0
v -2144 -1152 0
v -2080 -1152 0
v -736 -1280 0
v -800 -1280 0
v -800 -1216 0
v -736 -1216 0
v -2080 -1280 0
v -2144 -1280 0
v -2144 -1216 0
v -2080 -1216 0
v -736 -1344 0
v -800 -1344 0
v -800 -1280 0
v -736 -1280 0
v -2080 -1344 0
v -2144 -1344 0
v -2144 -1280 0
v -2080 -1280 0
v -736 -1408 0
v -800 -1408 0
v -800 -1344 0
v -736 -1344 0
v -2080 -1408 0
v -2144 -1408 0
v -2144 -1344 0
v -2080 -1344 0
v -736 -1472 0
v -800 -1472 0
v -800 -1408 0
v -736 -1408 0
v -2080 -1472 0
v -2144 -1472 0
v -2144 -1408 0
v -2080 -1408 0
v -736 -1536 0
v -800 -1536 0
v -800 -1472 0
v -736 -1472 0
v -2080 -1536 0
v -2144 -1536 0
v -2144 -1472 0
v -2080 -1472 0
v -736 -1600 0
v -800 -1600 0
v -800 -1536 0
v -736 -1536 0
v -2080 -1600 0
v -2144 -1600 0
v -2144 -1536 0
v -2080 -1536 0
v -736 -1664 0
v -800 -1664 0
v -800 -1600 0
v -736 -1600 0
v -2080 -1664 0
v -2144 -1664 0
v -2144 -1600 0
v -2080 -1600 0
v -736 -1728 0
v -800 -1728 0
v -800 -1664 0
v -736 -1664 0
v -2080 -1728 0
v -2144 -1728 0
v -2144 -1664 0
v -2080 -1664 0
v -736 -1792 0
v -800 -1792 0
v -800 -1728 0
v -736 -1728 0
v -2080 -1792 0
v -2144 -1792 0
v -2144 -1728 0
v -2080 -1728 0
v -736 -1856 0
v -800 -1856 0
v -800 -1792 0
v -736 -1792 0
v -2080 -1856 0
v -2144 -1856 0
v -2144 -1792 0
v -2080 -1792 0
v -736 -1920 0
v -800 -1920 0
v -800 -1856 0
v -736 -1856 0
v -2080 -1920 0
v -2144 -1920 0
v -2144 -1856 0
v -2080 -1856 0
v -736 -1984 0
v -800 -1984 0
v -800 -1920 0
v -736 -1920 0
v -2080 -1984 0
v -2144 -1984 0
v -2144 -1920 0
v -2080 -1920 0
v -736 -2048 0
v -800 -2048 0
v -800 -1984 0
v -736 -1984 0
v -2080 -2048 0
v -2144 -2048 0
v -2144 -1984 0
v -2080 -1984 0
v -736 -2112 0
v -800 -2112 0
v -800 -2048 0
v -736 -2048 0
v -2080 -2112 0
v -2144 -2112 0
v -2144 -2048 0
v -2080 -2048 0
v -736 -2176 0
v -800 -2176 0
v -800 -2112 0
v -736 -2112 0
v -2080 -2176 0
v -2144 -2176 0
v -2144 -2112 0
v -2080 -2112 0
v -736 -2240 0
v -800 -2240 0
v -800 -2176 0
v -736 -2176 0
v -2080 -2240 0
v -2144 -2240 0
v -2144 -2176 0
v -2080 -2176 0
v -736 -2304 0
v -800 -2304 0
v -800 -2240 0
v -736 -2240 0
v -2080 -2304 0
v -2144 -2304 0
v -2144 -2240 0
v -2080 -2240 0
v -736 -2368 0
v -800 -2368 0
v -800 -2304 0
v -736 -2304 0
v -2080 -2368 0
v -2144 -2368 0
v -2144 -2304 0
v -2080 -2304 0
v -736 -2432 0
v -800 -2432 0
v -800 -2368 0
v -736 -2368 0
v -2080 -2432 0
v -2144 -2432 0
v -2144 -2368 0
v -2080 -2368 0
v -736 -2496 0
v -800 -2496 0
v -800 -2432 0
v -736 -2432 0
v -2080 -2496 0
v -2144 -2496 0
v -2144 -2432 0
v -2080 -2432 0
v -736 -2560 0
v -800 -2560 0
v -800 -2496 0
v -736 -2496 0
v -2080 -2560 0
v -2144 -2560 0
v -2144 -2496 0
v -2080 -2496 0
v -736 -2624 0
v -800 -2624 0
v -800 -2560 0
v -736 -2560 0
v -2080 -2624 0
v -2144 -2624 0
v -2144 -2560 0
v -2080 -2560 0
v -736 -2688 0
v -800 -2688 0
v -800 -2624 0
v -736 -2624 0
v -2080 -2688 0
v -2144 -2688 0
v -2144 -2624 0
v -2080 -2624 0
v -736 -2752 0
v -800 -2752 0
v -800 -2688 0
v -736 -2688 0
v -2080 -2752 0
v -2144 -2752 0
v -2144 -2688 0
v -2080 -2688 0
v -736 -2816 0
v -800 -2816 0
v -800 -2752 0
v -736 -2752 0
v -2080 -2816 0
v -2144 -2816 0
v -2144 -2752 0
v -2080 -2752 0

# Texture cooridinates (Count = 4)
vt 0 0
vt 1 0
vt 1 1
vt 0 1

# Normal
vn 0 0 -1

# Mesh description
g avMap_mesh_0007

# Faces
f 1/1/1 2/2/1 3/3/1 4/4/1
f 5/2/1 6/1/1 7/4/1 8/3/1
f 9/1/1 10/2/1 11/3/1 12/4/1
f 13/2/1 14/1/1 15/4/1 16/3/1
f 17/1/1 18/2/1 19/3/1 20/4/1
f 21/2/1 22/1/1 23/4/1 24/3/1
f 25/1/1 26/2/1 27/3/1 28/4/1
f 29/2/1 30/1/1 31/4/1 32/3/1
f 33/1/1 34/2/1 35/3/1 36/4/1
f 37/2/1 38/1/1 39/4/1 40/3/1
f 41/1/1 42/2/1 43/3/1 44/4/1
f 45/2/1 46/1/1 47/4/1 48/3/1
f 49/1/1 50/2/1 51/3/1 52/4/1
f 53/2/1 54/1/1 55/4/1 56/3/1
f 57/1/1 58/2/1 59/3/1 60/4/1
f 61/2/1 62/1/1 63/4/1 64/3/1
f 65/1/1 66/2/1 67/3/1 68/4/1
f 69/2/1 70/1/1 71/4/1 72/3/1
f 73/1/1 74/2/1 75/3/1 76/4/1
f 77/2/1 78/1/1 79/4/1 80/3/1
f 81/1/1 82/2/1 83/3/1 84/4/1
f 85/2/1 86/1/1 87/4/1 88/3/1
f 89/1/1 90/2/1 91/3/1 92/4/1
f 93/2/1 94/1/1 95/4/1 96/3/1
f 97/1/1 98/2/1 99/3/1 100/4/1
f 101/2/1 102/1/1 103/4/1 104/3/1
f 105/1/1 106/2/1 107/3/1 108/4/1
f 109/2/1 110/1/1 111/4/1 112/3/1
f 113/1/1 114/2/1 115/3/1 116/4/1
f 117/2/1 118/1/1 119/4/1 120/3/1
f 121/1/1 122/2/1 123/3/1 124/4/1
f 125/2/1 126/1/1 127/4/1 128/3/1
f 129/1/1 130/2/1 131/3/1 132/4/1
f 133/2/1 134/1/1 135/4/1 136/3/1
f 137/1/1 138/2/1 139/3/1 140/4/1
f 141/2/1 142/1/1 143/4/1 144/3/1
f 145/1/1 146/2/1 147/3/1 148/4/1
f 149/2/1 150/1/1 151/4/1 152/3/1
f 153/1/1 154/2/1 155/3/1 156/4/1
f 157/2/1 158/1/1 159/4/1 160/3/1
f 161/1/1 162/2/1 163/3/1 164/4/1
f 165/2/1 166/1/1 167/4/1 168/3/1
f 169/1/1 170/2/1 171/3/1 172/4/1
f 173/2/1 174/1/1 175/4/1 176/3/1
f 177/1/1 178/2/1 179/3/1 180/4/1
f 181/2/1 182/1/1 183/4/1 184/3/1
f 185/1/1 186/2/1 187/3/1 188/4/1
f 189/2/1 190/1/1 191/4/1 192/3/1
f 193/1/1 194/2/1 195/3/1 196/4/1
f 197/2/1 198/1/1 199/4/1 200/3/1
f 201/1/1 202/2/1 203/3/1 204/4/1
f 205/2/1 206/1/1 207/4/1 208/3/1
f 209/1/1 210/2/1 211/3/1 212/4/1
f 213/2/1 214/1/1 215/4/1 216/3/1
f 217/1/1 218/2/1 219/3/1 220/4/1
f 221/2/1 222/1/1 223/4/1 224/3/1
f 225/1/1 226/2/1 227/3/1 228/4/1
f 229/2/1 230/1/1 231/4/1 232/3/1
f 233/1/1 234/2/1 235/3/1 236/4/1
f 237/2/1 238/1/1 239/4/1 240/3/1
f 241/1/1 242/2/1 243/3/1 244/4/1
f 245/2/1 246/1/1 247/4/1 248/3/1
f 249/1/1 250/2/1 251/3/1 252/4/1
f 253/2/1 254/1/1 255/4/1 256/3/1
f 257/1/1 258/2/1 259/3/1 260/4/1
f 261/2/1 262/1/1 263/4/1 264/3/1
f 265/1/1 266/2/1 267/3/1 268/4/1
f 269/2/1 270/1/1 271/4/1 272/3/1
f 273/1/1 274/2/1 275/3/1 276/4/1
f 277/2/1 278/1/1 279/4/1 280/3/1
f 281/1/1 282/2/1 283/3/1 284/4/1
f 285/2/1 286/1/1 287/4/1 288/3/1
f 289/1/1 290/2/1 291/3/1 292/4/1
f 293/2/1 294/1/1 295/4/1 296/3/1
f 297/1/1 298/2/1 299/3/1 300/4/1
f 301/2/1 302/1/1 303/4/1 304/3/1
f 305/1/1 306/2/1 307/3/1 308/4/1
f 309/2/1 310/1/1 311/4/1 312/3/1
f 313/1/1 314/2/1 315/3/1 316/4/1
f 317/2/1 318/1/1 319/4/1 320/3/1
f 321/1/1 322/2/1 323/3/1 324/4/1
f 325/2/1 326/1/1 327/4/1 328/3/1
f 329/1/1 330/2/1 331/3/1 332/4/1
f 333/2/1 334/1/1 335/4/1 336/3/1

