# Tiled2Unity generated file. Do not modify by hand.
# Wavefront file for 'avMap_mesh_0011.obj'

# Vertices (Count = 240)
v -1248 -192 0
v -1312 -192 0
v -1312 -128 0
v -1248 -128 0
v -1312 -192 0
v -1376 -192 0
v -1376 -128 0
v -1312 -128 0
v -1376 -192 0
v -1440 -192 0
v -1440 -128 0
v -1376 -128 0
v -1440 -192 0
v -1504 -192 0
v -1504 -128 0
v -1440 -128 0
v -1504 -192 0
v -1568 -192 0
v -1568 -128 0
v -1504 -128 0
v -1568 -192 0
v -1632 -192 0
v -1632 -128 0
v -1568 -128 0
v -1632 -192 0
v -1696 -192 0
v -1696 -128 0
v -1632 -128 0
v -1696 -192 0
v -1760 -192 0
v -1760 -128 0
v -1696 -128 0
v -1760 -192 0
v -1824 -192 0
v -1824 -128 0
v -1760 -128 0
v -1824 -192 0
v -1888 -192 0
v -1888 -128 0
v -1824 -128 0
v -1888 -192 0
v -1952 -192 0
v -1952 -128 0
v -1888 -128 0
v -1952 -192 0
v -2016 -192 0
v -2016 -128 0
v -1952 -128 0
v -864 -1280 0
v -928 -1280 0
v -928 -1216 0
v -864 -1216 0
v -928 -1280 0
v -992 -1280 0
v -992 -1216 0
v -928 -1216 0
v -992 -1280 0
v -1056 -1280 0
v -1056 -1216 0
v -992 -1216 0
v -1056 -1280 0
v -1120 -1280 0
v -1120 -1216 0
v -1056 -1216 0
v -1120 -1280 0
v -1184 -1280 0
v -1184 -1216 0
v -1120 -1216 0
v -1184 -1280 0
v -1248 -1280 0
v -1248 -1216 0
v -1184 -1216 0
v -1248 -1280 0
v -1312 -1280 0
v -1312 -1216 0
v -1248 -1216 0
v -1312 -1280 0
v -1376 -1280 0
v -1376 -1216 0
v -1312 -1216 0
v -1504 -1280 0
v -1568 -1280 0
v -1568 -1216 0
v -1504 -1216 0
v -1568 -1280 0
v -1632 -1280 0
v -1632 -1216 0
v -1568 -1216 0
v -1632 -1280 0
v -1696 -1280 0
v -1696 -1216 0
v -1632 -1216 0
v -1696 -1280 0
v -1760 -1280 0
v -1760 -1216 0
v -1696 -1216 0
v -1760 -1280 0
v -1824 -1280 0
v -1824 -1216 0
v -1760 -1216 0
v -1824 -1280 0
v -1888 -1280 0
v -1888 -1216 0
v -1824 -1216 0
v -1888 -1280 0
v -1952 -1280 0
v -1952 -1216 0
v -1888 -1216 0
v -1952 -1280 0
v -2016 -1280 0
v -2016 -1216 0
v -1952 -1216 0
v -1504 -1472 0
v -1568 -1472 0
v -1568 -1408 0
v -1504 -1408 0
v -1568 -1472 0
v -1632 -1472 0
v -1632 -1408 0
v -1568 -1408 0
v -1632 -1472 0
v -1696 -1472 0
v -1696 -1408 0
v -1632 -1408 0
v -1696 -1472 0
v -1760 -1472 0
v -1760 -1408 0
v -1696 -1408 0
v -1760 -1472 0
v -1824 -1472 0
v -1824 -1408 0
v -1760 -1408 0
v -1824 -1472 0
v -1888 -1472 0
v -1888 -1408 0
v -1824 -1408 0
v -1888 -1472 0
v -1952 -1472 0
v -1952 -1408 0
v -1888 -1408 0
v -1952 -1472 0
v -2016 -1472 0
v -2016 -1408 0
v -1952 -1408 0
v -1632 -2240 0
v -1696 -2240 0
v -1696 -2176 0
v -1632 -2176 0
v -1696 -2240 0
v -1760 -2240 0
v -1760 -2176 0
v -1696 -2176 0
v -1760 -2240 0
v -1824 -2240 0
v -1824 -2176 0
v -1760 -2176 0
v -1824 -2240 0
v -1888 -2240 0
v -1888 -2176 0
v -1824 -2176 0
v -1888 -2240 0
v -1952 -2240 0
v -1952 -2176 0
v -1888 -2176 0
v -1952 -2240 0
v -2016 -2240 0
v -2016 -2176 0
v -1952 -2176 0
v -864 -2560 0
v -928 -2560 0
v -928 -2496 0
v -864 -2496 0
v -928 -2560 0
v -992 -2560 0
v -992 -2496 0
v -928 -2496 0
v -992 -2560 0
v -1056 -2560 0
v -1056 -2496 0
v -992 -2496 0
v -1056 -2560 0
v -1120 -2560 0
v -1120 -2496 0
v -1056 -2496 0
v -1120 -2560 0
v -1184 -2560 0
v -1184 -2496 0
v -1120 -2496 0
v -1184 -2560 0
v -1248 -2560 0
v -1248 -2496 0
v -1184 -2496 0
v -1248 -2560 0
v -1312 -2560 0
v -1312 -2496 0
v -1248 -2496 0
v -864 -2816 0
v -928 -2816 0
v -928 -2752 0
v -864 -2752 0
v -928 -2816 0
v -992 -2816 0
v -992 -2752 0
v -928 -2752 0
v -992 -2816 0
v -1056 -2816 0
v -1056 -2752 0
v -992 -2752 0
v -1056 -2816 0
v -1120 -2816 0
v -1120 -2752 0
v -1056 -2752 0
v -1120 -2816 0
v -1184 -2816 0
v -1184 -2752 0
v -1120 -2752 0
v -1184 -2816 0
v -1248 -2816 0
v -1248 -2752 0
v -1184 -2752 0
v -1248 -2816 0
v -1312 -2816 0
v -1312 -2752 0
v -1248 -2752 0
v -1312 -2816 0
v -1376 -2816 0
v -1376 -2752 0
v -1312 -2752 0
v -1376 -2816 0
v -1440 -2816 0
v -1440 -2752 0
v -1376 -2752 0
v -1440 -2816 0
v -1504 -2816 0
v -1504 -2752 0
v -1440 -2752 0
v -1504 -2816 0
v -1568 -2816 0
v -1568 -2752 0
v -1504 -2752 0

# Texture cooridinates (Count = 4)
vt 0 0
vt 1 0
vt 1 1
vt 0 1

# Normal
vn 0 0 -1

# Mesh description
g avMap_mesh_0011

# Faces
f 1/1/1 2/2/1 3/3/1 4/4/1
f 5/1/1 6/2/1 7/3/1 8/4/1
f 9/1/1 10/2/1 11/3/1 12/4/1
f 13/1/1 14/2/1 15/3/1 16/4/1
f 17/1/1 18/2/1 19/3/1 20/4/1
f 21/1/1 22/2/1 23/3/1 24/4/1
f 25/1/1 26/2/1 27/3/1 28/4/1
f 29/1/1 30/2/1 31/3/1 32/4/1
f 33/1/1 34/2/1 35/3/1 36/4/1
f 37/1/1 38/2/1 39/3/1 40/4/1
f 41/1/1 42/2/1 43/3/1 44/4/1
f 45/1/1 46/2/1 47/3/1 48/4/1
f 49/1/1 50/2/1 51/3/1 52/4/1
f 53/1/1 54/2/1 55/3/1 56/4/1
f 57/1/1 58/2/1 59/3/1 60/4/1
f 61/1/1 62/2/1 63/3/1 64/4/1
f 65/1/1 66/2/1 67/3/1 68/4/1
f 69/1/1 70/2/1 71/3/1 72/4/1
f 73/1/1 74/2/1 75/3/1 76/4/1
f 77/1/1 78/2/1 79/3/1 80/4/1
f 81/4/1 82/3/1 83/2/1 84/1/1
f 85/4/1 86/3/1 87/2/1 88/1/1
f 89/4/1 90/3/1 91/2/1 92/1/1
f 93/4/1 94/3/1 95/2/1 96/1/1
f 97/4/1 98/3/1 99/2/1 100/1/1
f 101/4/1 102/3/1 103/2/1 104/1/1
f 105/4/1 106/3/1 107/2/1 108/1/1
f 109/4/1 110/3/1 111/2/1 112/1/1
f 113/1/1 114/2/1 115/3/1 116/4/1
f 117/1/1 118/2/1 119/3/1 120/4/1
f 121/1/1 122/2/1 123/3/1 124/4/1
f 125/1/1 126/2/1 127/3/1 128/4/1
f 129/1/1 130/2/1 131/3/1 132/4/1
f 133/1/1 134/2/1 135/3/1 136/4/1
f 137/1/1 138/2/1 139/3/1 140/4/1
f 141/1/1 142/2/1 143/3/1 144/4/1
f 145/4/1 146/3/1 147/2/1 148/1/1
f 149/4/1 150/3/1 151/2/1 152/1/1
f 153/4/1 154/3/1 155/2/1 156/1/1
f 157/4/1 158/3/1 159/2/1 160/1/1
f 161/4/1 162/3/1 163/2/1 164/1/1
f 165/4/1 166/3/1 167/2/1 168/1/1
f 169/1/1 170/2/1 171/3/1 172/4/1
f 173/1/1 174/2/1 175/3/1 176/4/1
f 177/1/1 178/2/1 179/3/1 180/4/1
f 181/1/1 182/2/1 183/3/1 184/4/1
f 185/1/1 186/2/1 187/3/1 188/4/1
f 189/1/1 190/2/1 191/3/1 192/4/1
f 193/1/1 194/2/1 195/3/1 196/4/1
f 197/4/1 198/3/1 199/2/1 200/1/1
f 201/4/1 202/3/1 203/2/1 204/1/1
f 205/4/1 206/3/1 207/2/1 208/1/1
f 209/4/1 210/3/1 211/2/1 212/1/1
f 213/4/1 214/3/1 215/2/1 216/1/1
f 217/4/1 218/3/1 219/2/1 220/1/1
f 221/4/1 222/3/1 223/2/1 224/1/1
f 225/4/1 226/3/1 227/2/1 228/1/1
f 229/4/1 230/3/1 231/2/1 232/1/1
f 233/4/1 234/3/1 235/2/1 236/1/1
f 237/4/1 238/3/1 239/2/1 240/1/1

