# Tiled2Unity generated file. Do not modify by hand.
# Wavefront file for 'avMap_mesh_0016.obj'

# Vertices (Count = 60)
v -1504 -256 0
v -1568 -256 0
v -1568 -192 0
v -1504 -192 0
v -1632 -256 0
v -1696 -256 0
v -1696 -192 0
v -1632 -192 0
v -1760 -256 0
v -1824 -256 0
v -1824 -192 0
v -1760 -192 0
v -1504 -704 0
v -1568 -704 0
v -1568 -640 0
v -1504 -640 0
v -1632 -704 0
v -1696 -704 0
v -1696 -640 0
v -1632 -640 0
v -1760 -704 0
v -1824 -704 0
v -1824 -640 0
v -1760 -640 0
v -1184 -736 0
v -1248 -736 0
v -1248 -672 0
v -1184 -672 0
v -1312 -1216 0
v -1376 -1216 0
v -1376 -1152 0
v -1312 -1152 0
v -1504 -1408 0
v -1568 -1408 0
v -1568 -1344 0
v -1504 -1344 0
v -1248 -1792 0
v -1312 -1792 0
v -1312 -1728 0
v -1248 -1728 0
v -1568 -1792 0
v -1632 -1792 0
v -1632 -1728 0
v -1568 -1728 0
v -1248 -2112 0
v -1312 -2112 0
v -1312 -2048 0
v -1248 -2048 0
v -1568 -2112 0
v -1632 -2112 0
v -1632 -2048 0
v -1568 -2048 0
v -1632 -2304 0
v -1696 -2304 0
v -1696 -2240 0
v -1632 -2240 0
v -1312 -2496 0
v -1376 -2496 0
v -1376 -2432 0
v -1312 -2432 0

# Texture cooridinates (Count = 4)
vt 0 1
vt 1 1
vt 1 0
vt 0 0

# Normal
vn 0 0 -1

# Mesh description
g avMap_mesh_0016

# Faces
f 1/1/1 2/2/1 3/3/1 4/4/1
f 5/1/1 6/2/1 7/3/1 8/4/1
f 9/1/1 10/2/1 11/3/1 12/4/1
f 13/4/1 14/3/1 15/2/1 16/1/1
f 17/4/1 18/3/1 19/2/1 20/1/1
f 21/4/1 22/3/1 23/2/1 24/1/1
f 25/4/1 26/3/1 27/2/1 28/1/1
f 29/4/1 30/3/1 31/2/1 32/1/1
f 33/3/1 34/4/1 35/1/1 36/2/1
f 37/4/1 38/3/1 39/2/1 40/1/1
f 41/4/1 42/3/1 43/2/1 44/1/1
f 45/4/1 46/3/1 47/2/1 48/1/1
f 49/4/1 50/3/1 51/2/1 52/1/1
f 53/2/1 54/1/1 55/4/1 56/3/1
f 57/4/1 58/3/1 59/2/1 60/1/1

