# Tiled2Unity generated file. Do not modify by hand.
# Wavefront file for 'avMap_mesh_0010.obj'

# Vertices (Count = 96)
v -1184 -192 0
v -1248 -192 0
v -1248 -128 0
v -1184 -128 0
v -1184 -224 0
v -1248 -224 0
v -1248 -160 0
v -1184 -160 0
v -1184 -288 0
v -1248 -288 0
v -1248 -224 0
v -1184 -224 0
v -1184 -352 0
v -1248 -352 0
v -1248 -288 0
v -1184 -288 0
v -1440 -384 0
v -1504 -384 0
v -1504 -320 0
v -1440 -320 0
v -1568 -384 0
v -1632 -384 0
v -1632 -320 0
v -1568 -320 0
v -1696 -384 0
v -1760 -384 0
v -1760 -320 0
v -1696 -320 0
v -1184 -416 0
v -1248 -416 0
v -1248 -352 0
v -1184 -352 0
v -1440 -448 0
v -1504 -448 0
v -1504 -384 0
v -1440 -384 0
v -1568 -448 0
v -1632 -448 0
v -1632 -384 0
v -1568 -384 0
v -1696 -448 0
v -1760 -448 0
v -1760 -384 0
v -1696 -384 0
v -1184 -480 0
v -1248 -480 0
v -1248 -416 0
v -1184 -416 0
v -1440 -512 0
v -1504 -512 0
v -1504 -448 0
v -1440 -448 0
v -1568 -512 0
v -1632 -512 0
v -1632 -448 0
v -1568 -448 0
v -1696 -512 0
v -1760 -512 0
v -1760 -448 0
v -1696 -448 0
v -1184 -544 0
v -1248 -544 0
v -1248 -480 0
v -1184 -480 0
v -1440 -576 0
v -1504 -576 0
v -1504 -512 0
v -1440 -512 0
v -1568 -576 0
v -1632 -576 0
v -1632 -512 0
v -1568 -512 0
v -1696 -576 0
v -1760 -576 0
v -1760 -512 0
v -1696 -512 0
v -1184 -608 0
v -1248 -608 0
v -1248 -544 0
v -1184 -544 0
v -1184 -1664 0
v -1248 -1664 0
v -1248 -1600 0
v -1184 -1600 0
v -1504 -1664 0
v -1568 -1664 0
v -1568 -1600 0
v -1504 -1600 0
v -1184 -1984 0
v -1248 -1984 0
v -1248 -1920 0
v -1184 -1920 0
v -1504 -1984 0
v -1568 -1984 0
v -1568 -1920 0
v -1504 -1920 0

# Texture cooridinates (Count = 4)
vt 1 1
vt 0 1
vt 0 0
vt 1 0

# Normal
vn 0 0 -1

# Mesh description
g avMap_mesh_0010

# Faces
f 1/1/1 2/2/1 3/3/1 4/4/1
f 5/1/1 6/2/1 7/3/1 8/4/1
f 9/1/1 10/2/1 11/3/1 12/4/1
f 13/1/1 14/2/1 15/3/1 16/4/1
f 17/2/1 18/1/1 19/4/1 20/3/1
f 21/2/1 22/1/1 23/4/1 24/3/1
f 25/2/1 26/1/1 27/4/1 28/3/1
f 29/1/1 30/2/1 31/3/1 32/4/1
f 33/3/1 34/4/1 35/1/1 36/2/1
f 37/3/1 38/4/1 39/1/1 40/2/1
f 41/3/1 42/4/1 43/1/1 44/2/1
f 45/1/1 46/2/1 47/3/1 48/4/1
f 49/3/1 50/4/1 51/1/1 52/2/1
f 53/3/1 54/4/1 55/1/1 56/2/1
f 57/3/1 58/4/1 59/1/1 60/2/1
f 61/1/1 62/2/1 63/3/1 64/4/1
f 65/3/1 66/4/1 67/1/1 68/2/1
f 69/3/1 70/4/1 71/1/1 72/2/1
f 73/3/1 74/4/1 75/1/1 76/2/1
f 77/1/1 78/2/1 79/3/1 80/4/1
f 81/3/1 82/4/1 83/1/1 84/2/1
f 85/3/1 86/4/1 87/1/1 88/2/1
f 89/3/1 90/4/1 91/1/1 92/2/1
f 93/3/1 94/4/1 95/1/1 96/2/1

