# Tiled2Unity generated file. Do not modify by hand.
# Wavefront file for 'avMap_mesh_0008.obj'

# Vertices (Count = 24)
v -1120 -160 0
v -1184 -160 0
v -1184 -96 0
v -1120 -96 0
v -736 -1216 0
v -800 -1216 0
v -800 -1152 0
v -736 -1152 0
v -2080 -1408 0
v -2144 -1408 0
v -2144 -1344 0
v -2080 -1344 0
v -736 -2496 0
v -800 -2496 0
v -800 -2432 0
v -736 -2432 0
v -1632 -2848 0
v -1696 -2848 0
v -1696 -2784 0
v -1632 -2784 0
v -1632 -2880 0
v -1696 -2880 0
v -1696 -2816 0
v -1632 -2816 0

# Texture cooridinates (Count = 4)
vt 1 0
vt 0 0
vt 0 1
vt 1 1

# Normal
vn 0 0 -1

# Mesh description
g avMap_mesh_0008

# Faces
f 1/1/1 2/2/1 3/3/1 4/4/1
f 5/2/1 6/1/1 7/4/1 8/3/1
f 9/1/1 10/2/1 11/3/1 12/4/1
f 13/2/1 14/1/1 15/4/1 16/3/1
f 17/4/1 18/3/1 19/2/1 20/1/1
f 21/4/1 22/3/1 23/2/1 24/1/1

