# Tiled2Unity generated file. Do not modify by hand.
# Wavefront file for 'avMap_mesh_0013.obj'

# Vertices (Count = 156)
v -1120 -224 0
v -1184 -224 0
v -1184 -160 0
v -1120 -160 0
v -1120 -288 0
v -1184 -288 0
v -1184 -224 0
v -1120 -224 0
v -1120 -352 0
v -1184 -352 0
v -1184 -288 0
v -1120 -288 0
v -1504 -384 0
v -1568 -384 0
v -1568 -320 0
v -1504 -320 0
v -1632 -384 0
v -1696 -384 0
v -1696 -320 0
v -1632 -320 0
v -1760 -384 0
v -1824 -384 0
v -1824 -320 0
v -1760 -320 0
v -1120 -416 0
v -1184 -416 0
v -1184 -352 0
v -1120 -352 0
v -1504 -448 0
v -1568 -448 0
v -1568 -384 0
v -1504 -384 0
v -1632 -448 0
v -1696 -448 0
v -1696 -384 0
v -1632 -384 0
v -1760 -448 0
v -1824 -448 0
v -1824 -384 0
v -1760 -384 0
v -1120 -480 0
v -1184 -480 0
v -1184 -416 0
v -1120 -416 0
v -1504 -512 0
v -1568 -512 0
v -1568 -448 0
v -1504 -448 0
v -1632 -512 0
v -1696 -512 0
v -1696 -448 0
v -1632 -448 0
v -1760 -512 0
v -1824 -512 0
v -1824 -448 0
v -1760 -448 0
v -1120 -544 0
v -1184 -544 0
v -1184 -480 0
v -1120 -480 0
v -1504 -576 0
v -1568 -576 0
v -1568 -512 0
v -1504 -512 0
v -1632 -576 0
v -1696 -576 0
v -1696 -512 0
v -1632 -512 0
v -1760 -576 0
v -1824 -576 0
v -1824 -512 0
v -1760 -512 0
v -1120 -608 0
v -1184 -608 0
v -1184 -544 0
v -1120 -544 0
v -1248 -1664 0
v -1312 -1664 0
v -1312 -1600 0
v -1248 -1600 0
v -1568 -1664 0
v -1632 -1664 0
v -1632 -1600 0
v -1568 -1600 0
v -1248 -1984 0
v -1312 -1984 0
v -1312 -1920 0
v -1248 -1920 0
v -1568 -1984 0
v -1632 -1984 0
v -1632 -1920 0
v -1568 -1920 0
v -1632 -2336 0
v -1696 -2336 0
v -1696 -2272 0
v -1632 -2272 0
v -1632 -2368 0
v -1696 -2368 0
v -1696 -2304 0
v -1632 -2304 0
v -1632 -2400 0
v -1696 -2400 0
v -1696 -2336 0
v -1632 -2336 0
v -1632 -2432 0
v -1696 -2432 0
v -1696 -2368 0
v -1632 -2368 0
v -1632 -2464 0
v -1696 -2464 0
v -1696 -2400 0
v -1632 -2400 0
v -1632 -2496 0
v -1696 -2496 0
v -1696 -2432 0
v -1632 -2432 0
v -1632 -2528 0
v -1696 -2528 0
v -1696 -2464 0
v -1632 -2464 0
v -1632 -2560 0
v -1696 -2560 0
v -1696 -2496 0
v -1632 -2496 0
v -1632 -2592 0
v -1696 -2592 0
v -1696 -2528 0
v -1632 -2528 0
v -1632 -2624 0
v -1696 -2624 0
v -1696 -2560 0
v -1632 -2560 0
v -1632 -2656 0
v -1696 -2656 0
v -1696 -2592 0
v -1632 -2592 0
v -1632 -2688 0
v -1696 -2688 0
v -1696 -2624 0
v -1632 -2624 0
v -1632 -2720 0
v -1696 -2720 0
v -1696 -2656 0
v -1632 -2656 0
v -1632 -2752 0
v -1696 -2752 0
v -1696 -2688 0
v -1632 -2688 0
v -1632 -2784 0
v -1696 -2784 0
v -1696 -2720 0
v -1632 -2720 0
v -1632 -2816 0
v -1696 -2816 0
v -1696 -2752 0
v -1632 -2752 0

# Texture cooridinates (Count = 4)
vt 1 1
vt 0 1
vt 0 0
vt 1 0

# Normal
vn 0 0 -1

# Mesh description
g avMap_mesh_0013

# Faces
f 1/1/1 2/2/1 3/3/1 4/4/1
f 5/1/1 6/2/1 7/3/1 8/4/1
f 9/1/1 10/2/1 11/3/1 12/4/1
f 13/2/1 14/1/1 15/4/1 16/3/1
f 17/2/1 18/1/1 19/4/1 20/3/1
f 21/2/1 22/1/1 23/4/1 24/3/1
f 25/1/1 26/2/1 27/3/1 28/4/1
f 29/3/1 30/4/1 31/1/1 32/2/1
f 33/3/1 34/4/1 35/1/1 36/2/1
f 37/3/1 38/4/1 39/1/1 40/2/1
f 41/1/1 42/2/1 43/3/1 44/4/1
f 45/3/1 46/4/1 47/1/1 48/2/1
f 49/3/1 50/4/1 51/1/1 52/2/1
f 53/3/1 54/4/1 55/1/1 56/2/1
f 57/1/1 58/2/1 59/3/1 60/4/1
f 61/3/1 62/4/1 63/1/1 64/2/1
f 65/3/1 66/4/1 67/1/1 68/2/1
f 69/3/1 70/4/1 71/1/1 72/2/1
f 73/1/1 74/2/1 75/3/1 76/4/1
f 77/3/1 78/4/1 79/1/1 80/2/1
f 81/3/1 82/4/1 83/1/1 84/2/1
f 85/3/1 86/4/1 87/1/1 88/2/1
f 89/3/1 90/4/1 91/1/1 92/2/1
f 93/4/1 94/3/1 95/2/1 96/1/1
f 97/4/1 98/3/1 99/2/1 100/1/1
f 101/4/1 102/3/1 103/2/1 104/1/1
f 105/4/1 106/3/1 107/2/1 108/1/1
f 109/4/1 110/3/1 111/2/1 112/1/1
f 113/4/1 114/3/1 115/2/1 116/1/1
f 117/4/1 118/3/1 119/2/1 120/1/1
f 121/4/1 122/3/1 123/2/1 124/1/1
f 125/4/1 126/3/1 127/2/1 128/1/1
f 129/4/1 130/3/1 131/2/1 132/1/1
f 133/4/1 134/3/1 135/2/1 136/1/1
f 137/4/1 138/3/1 139/2/1 140/1/1
f 141/4/1 142/3/1 143/2/1 144/1/1
f 145/4/1 146/3/1 147/2/1 148/1/1
f 149/4/1 150/3/1 151/2/1 152/1/1
f 153/4/1 154/3/1 155/2/1 156/1/1

