# Tiled2Unity generated file. Do not modify by hand.
# Wavefront file for 'avMap_mesh_0012.obj'

# Vertices (Count = 32)
v -2016 -192 0
v -2080 -192 0
v -2080 -128 0
v -2016 -128 0
v -800 -1280 0
v -864 -1280 0
v -864 -1216 0
v -800 -1216 0
v -2016 -1280 0
v -2080 -1280 0
v -2080 -1216 0
v -2016 -1216 0
v -2016 -1472 0
v -2080 -1472 0
v -2080 -1408 0
v -2016 -1408 0
v -2016 -2240 0
v -2080 -2240 0
v -2080 -2176 0
v -2016 -2176 0
v -800 -2560 0
v -864 -2560 0
v -864 -2496 0
v -800 -2496 0
v -800 -2816 0
v -864 -2816 0
v -864 -2752 0
v -800 -2752 0
v -1568 -2816 0
v -1632 -2816 0
v -1632 -2752 0
v -1568 -2752 0

# Texture cooridinates (Count = 4)
vt 1 0
vt 0 0
vt 0 1
vt 1 1

# Normal
vn 0 0 -1

# Mesh description
g avMap_mesh_0012

# Faces
f 1/1/1 2/2/1 3/3/1 4/4/1
f 5/2/1 6/1/1 7/4/1 8/3/1
f 9/4/1 10/3/1 11/2/1 12/1/1
f 13/1/1 14/2/1 15/3/1 16/4/1
f 17/4/1 18/3/1 19/2/1 20/1/1
f 21/2/1 22/1/1 23/4/1 24/3/1
f 25/3/1 26/4/1 27/1/1 28/2/1
f 29/4/1 30/3/1 31/2/1 32/1/1

