# Tiled2Unity generated file. Do not modify by hand.
# Wavefront file for 'avMap_mesh_0014.obj'

# Vertices (Count = 300)
v -1376 -256 0
v -1440 -256 0
v -1440 -192 0
v -1376 -192 0
v -1824 -256 0
v -1888 -256 0
v -1888 -192 0
v -1824 -192 0
v -2016 -256 0
v -2080 -256 0
v -2080 -192 0
v -2016 -192 0
v -1376 -320 0
v -1440 -320 0
v -1440 -256 0
v -1376 -256 0
v -1824 -320 0
v -1888 -320 0
v -1888 -256 0
v -1824 -256 0
v -2016 -320 0
v -2080 -320 0
v -2080 -256 0
v -2016 -256 0
v -1376 -384 0
v -1440 -384 0
v -1440 -320 0
v -1376 -320 0
v -1824 -384 0
v -1888 -384 0
v -1888 -320 0
v -1824 -320 0
v -2016 -384 0
v -2080 -384 0
v -2080 -320 0
v -2016 -320 0
v -1376 -448 0
v -1440 -448 0
v -1440 -384 0
v -1376 -384 0
v -1824 -448 0
v -1888 -448 0
v -1888 -384 0
v -1824 -384 0
v -2016 -448 0
v -2080 -448 0
v -2080 -384 0
v -2016 -384 0
v -1376 -512 0
v -1440 -512 0
v -1440 -448 0
v -1376 -448 0
v -1824 -512 0
v -1888 -512 0
v -1888 -448 0
v -1824 -448 0
v -2016 -512 0
v -2080 -512 0
v -2080 -448 0
v -2016 -448 0
v -1376 -576 0
v -1440 -576 0
v -1440 -512 0
v -1376 -512 0
v -1824 -576 0
v -1888 -576 0
v -1888 -512 0
v -1824 -512 0
v -2016 -576 0
v -2080 -576 0
v -2080 -512 0
v -2016 -512 0
v -1376 -640 0
v -1440 -640 0
v -1440 -576 0
v -1376 -576 0
v -1824 -640 0
v -1888 -640 0
v -1888 -576 0
v -1824 -576 0
v -2016 -640 0
v -2080 -640 0
v -2080 -576 0
v -2016 -576 0
v -1376 -704 0
v -1440 -704 0
v -1440 -640 0
v -1376 -640 0
v -1824 -704 0
v -1888 -704 0
v -1888 -640 0
v -1824 -640 0
v -2016 -704 0
v -2080 -704 0
v -2080 -640 0
v -2016 -640 0
v -2016 -768 0
v -2080 -768 0
v -2080 -704 0
v -2016 -704 0
v -2016 -832 0
v -2080 -832 0
v -2080 -768 0
v -2016 -768 0
v -2016 -896 0
v -2080 -896 0
v -2080 -832 0
v -2016 -832 0
v -2016 -960 0
v -2080 -960 0
v -2080 -896 0
v -2016 -896 0
v -2016 -1024 0
v -2080 -1024 0
v -2080 -960 0
v -2016 -960 0
v -2016 -1088 0
v -2080 -1088 0
v -2080 -1024 0
v -2016 -1024 0
v -1376 -1152 0
v -1440 -1152 0
v -1440 -1088 0
v -1376 -1088 0
v -2016 -1152 0
v -2080 -1152 0
v -2080 -1088 0
v -2016 -1088 0
v -1376 -1216 0
v -1440 -1216 0
v -1440 -1152 0
v -1376 -1152 0
v -2016 -1216 0
v -2080 -1216 0
v -2080 -1152 0
v -2016 -1152 0
v -800 -1344 0
v -864 -1344 0
v -864 -1280 0
v -800 -1280 0
v -1440 -1344 0
v -1504 -1344 0
v -1504 -1280 0
v -1440 -1280 0
v -800 -1408 0
v -864 -1408 0
v -864 -1344 0
v -800 -1344 0
v -1440 -1408 0
v -1504 -1408 0
v -1504 -1344 0
v -1440 -1344 0
v -800 -1472 0
v -864 -1472 0
v -864 -1408 0
v -800 -1408 0
v -800 -1536 0
v -864 -1536 0
v -864 -1472 0
v -800 -1472 0
v -2016 -1536 0
v -2080 -1536 0
v -2080 -1472 0
v -2016 -1472 0
v -800 -1600 0
v -864 -1600 0
v -864 -1536 0
v -800 -1536 0
v -2016 -1600 0
v -2080 -1600 0
v -2080 -1536 0
v -2016 -1536 0
v -800 -1664 0
v -864 -1664 0
v -864 -1600 0
v -800 -1600 0
v -2016 -1664 0
v -2080 -1664 0
v -2080 -1600 0
v -2016 -1600 0
v -800 -1728 0
v -864 -1728 0
v -864 -1664 0
v -800 -1664 0
v -2016 -1728 0
v -2080 -1728 0
v -2080 -1664 0
v -2016 -1664 0
v -800 -1792 0
v -864 -1792 0
v -864 -1728 0
v -800 -1728 0
v -2016 -1792 0
v -2080 -1792 0
v -2080 -1728 0
v -2016 -1728 0
v -800 -1856 0
v -864 -1856 0
v -864 -1792 0
v -800 -1792 0
v -2016 -1856 0
v -2080 -1856 0
v -2080 -1792 0
v -2016 -1792 0
v -800 -1920 0
v -864 -1920 0
v -864 -1856 0
v -800 -1856 0
v -2016 -1920 0
v -2080 -1920 0
v -2080 -1856 0
v -2016 -1856 0
v -800 -1984 0
v -864 -1984 0
v -864 -1920 0
v -800 -1920 0
v -2016 -1984 0
v -2080 -1984 0
v -2080 -1920 0
v -2016 -1920 0
v -800 -2048 0
v -864 -2048 0
v -864 -1984 0
v -800 -1984 0
v -2016 -2048 0
v -2080 -2048 0
v -2080 -1984 0
v -2016 -1984 0
v -800 -2112 0
v -864 -2112 0
v -864 -2048 0
v -800 -2048 0
v -2016 -2112 0
v -2080 -2112 0
v -2080 -2048 0
v -2016 -2048 0
v -800 -2176 0
v -864 -2176 0
v -864 -2112 0
v -800 -2112 0
v -2016 -2176 0
v -2080 -2176 0
v -2080 -2112 0
v -2016 -2112 0
v -800 -2240 0
v -864 -2240 0
v -864 -2176 0
v -800 -2176 0
v -800 -2304 0
v -864 -2304 0
v -864 -2240 0
v -800 -2240 0
v -1568 -2304 0
v -1632 -2304 0
v -1632 -2240 0
v -1568 -2240 0
v -800 -2368 0
v -864 -2368 0
v -864 -2304 0
v -800 -2304 0
v -1568 -2368 0
v -1632 -2368 0
v -1632 -2304 0
v -1568 -2304 0
v -1568 -2432 0
v -1632 -2432 0
v -1632 -2368 0
v -1568 -2368 0
v -1568 -2496 0
v -1632 -2496 0
v -1632 -2432 0
v -1568 -2432 0
v -1568 -2560 0
v -1632 -2560 0
v -1632 -2496 0
v -1568 -2496 0
v -800 -2624 0
v -864 -2624 0
v -864 -2560 0
v -800 -2560 0
v -1568 -2624 0
v -1632 -2624 0
v -1632 -2560 0
v -1568 -2560 0
v -800 -2688 0
v -864 -2688 0
v -864 -2624 0
v -800 -2624 0
v -1568 -2688 0
v -1632 -2688 0
v -1632 -2624 0
v -1568 -2624 0
v -800 -2752 0
v -864 -2752 0
v -864 -2688 0
v -800 -2688 0
v -1568 -2752 0
v -1632 -2752 0
v -1632 -2688 0
v -1568 -2688 0

# Texture cooridinates (Count = 4)
vt 1 0
vt 0 0
vt 0 1
vt 1 1

# Normal
vn 0 0 -1

# Mesh description
g avMap_mesh_0014

# Faces
f 1/1/1 2/2/1 3/3/1 4/4/1
f 5/2/1 6/1/1 7/4/1 8/3/1
f 9/1/1 10/2/1 11/3/1 12/4/1
f 13/1/1 14/2/1 15/3/1 16/4/1
f 17/2/1 18/1/1 19/4/1 20/3/1
f 21/1/1 22/2/1 23/3/1 24/4/1
f 25/1/1 26/2/1 27/3/1 28/4/1
f 29/2/1 30/1/1 31/4/1 32/3/1
f 33/1/1 34/2/1 35/3/1 36/4/1
f 37/1/1 38/2/1 39/3/1 40/4/1
f 41/2/1 42/1/1 43/4/1 44/3/1
f 45/1/1 46/2/1 47/3/1 48/4/1
f 49/1/1 50/2/1 51/3/1 52/4/1
f 53/2/1 54/1/1 55/4/1 56/3/1
f 57/1/1 58/2/1 59/3/1 60/4/1
f 61/1/1 62/2/1 63/3/1 64/4/1
f 65/2/1 66/1/1 67/4/1 68/3/1
f 69/1/1 70/2/1 71/3/1 72/4/1
f 73/1/1 74/2/1 75/3/1 76/4/1
f 77/2/1 78/1/1 79/4/1 80/3/1
f 81/1/1 82/2/1 83/3/1 84/4/1
f 85/1/1 86/2/1 87/3/1 88/4/1
f 89/2/1 90/1/1 91/4/1 92/3/1
f 93/1/1 94/2/1 95/3/1 96/4/1
f 97/1/1 98/2/1 99/3/1 100/4/1
f 101/1/1 102/2/1 103/3/1 104/4/1
f 105/1/1 106/2/1 107/3/1 108/4/1
f 109/1/1 110/2/1 111/3/1 112/4/1
f 113/1/1 114/2/1 115/3/1 116/4/1
f 117/1/1 118/2/1 119/3/1 120/4/1
f 121/2/1 122/1/1 123/4/1 124/3/1
f 125/1/1 126/2/1 127/3/1 128/4/1
f 129/2/1 130/1/1 131/4/1 132/3/1
f 133/1/1 134/2/1 135/3/1 136/4/1
f 137/2/1 138/1/1 139/4/1 140/3/1
f 141/1/1 142/2/1 143/3/1 144/4/1
f 145/2/1 146/1/1 147/4/1 148/3/1
f 149/1/1 150/2/1 151/3/1 152/4/1
f 153/2/1 154/1/1 155/4/1 156/3/1
f 157/2/1 158/1/1 159/4/1 160/3/1
f 161/1/1 162/2/1 163/3/1 164/4/1
f 165/2/1 166/1/1 167/4/1 168/3/1
f 169/1/1 170/2/1 171/3/1 172/4/1
f 173/2/1 174/1/1 175/4/1 176/3/1
f 177/1/1 178/2/1 179/3/1 180/4/1
f 181/2/1 182/1/1 183/4/1 184/3/1
f 185/1/1 186/2/1 187/3/1 188/4/1
f 189/2/1 190/1/1 191/4/1 192/3/1
f 193/1/1 194/2/1 195/3/1 196/4/1
f 197/2/1 198/1/1 199/4/1 200/3/1
f 201/1/1 202/2/1 203/3/1 204/4/1
f 205/2/1 206/1/1 207/4/1 208/3/1
f 209/1/1 210/2/1 211/3/1 212/4/1
f 213/2/1 214/1/1 215/4/1 216/3/1
f 217/1/1 218/2/1 219/3/1 220/4/1
f 221/2/1 222/1/1 223/4/1 224/3/1
f 225/1/1 226/2/1 227/3/1 228/4/1
f 229/2/1 230/1/1 231/4/1 232/3/1
f 233/1/1 234/2/1 235/3/1 236/4/1
f 237/2/1 238/1/1 239/4/1 240/3/1
f 241/1/1 242/2/1 243/3/1 244/4/1
f 245/2/1 246/1/1 247/4/1 248/3/1
f 249/2/1 250/1/1 251/4/1 252/3/1
f 253/4/1 254/3/1 255/2/1 256/1/1
f 257/2/1 258/1/1 259/4/1 260/3/1
f 261/1/1 262/2/1 263/3/1 264/4/1
f 265/1/1 266/2/1 267/3/1 268/4/1
f 269/1/1 270/2/1 271/3/1 272/4/1
f 273/1/1 274/2/1 275/3/1 276/4/1
f 277/2/1 278/1/1 279/4/1 280/3/1
f 281/1/1 282/2/1 283/3/1 284/4/1
f 285/2/1 286/1/1 287/4/1 288/3/1
f 289/1/1 290/2/1 291/3/1 292/4/1
f 293/2/1 294/1/1 295/4/1 296/3/1
f 297/1/1 298/2/1 299/3/1 300/4/1

