# Tiled2Unity generated file. Do not modify by hand.
# Wavefront file for 'Level-1_mesh_0020.obj'

# Vertices (Count = 28)
v -14.08 -16.32 0
v -14.4 -16.32 0
v -14.4 -16 0
v -14.08 -16 0
v -10.88 -17.28 0
v -11.2 -17.28 0
v -11.2 -16.96 0
v -10.88 -16.96 0
v -9.28 -18.88 0
v -9.599999 -18.88 0
v -9.599999 -18.56 0
v -9.28 -18.56 0
v -10.88 -18.88 0
v -11.2 -18.88 0
v -11.2 -18.56 0
v -10.88 -18.56 0
v -9.599999 -20.48 0
v -9.92 -20.48 0
v -9.92 -20.16 0
v -9.599999 -20.16 0
v -10.56 -24.32 0
v -10.88 -24.32 0
v -10.88 -24 0
v -10.56 -24 0
v -9.599999 -25.6 0
v -9.92 -25.6 0
v -9.92 -25.28 0
v -9.599999 -25.28 0

# Texture cooridinates (Count = 4)
vt 1 0
vt 0 0
vt 0 1
vt 1 1

# Normal
vn 0 0 -1

# Mesh description
g Level-1_mesh_0020

# Faces
f 1/1/1 2/2/1 3/3/1 4/4/1
f 5/4/1 6/3/1 7/2/1 8/1/1
f 9/2/1 10/1/1 11/4/1 12/3/1
f 13/1/1 14/2/1 15/3/1 16/4/1
f 17/3/1 18/4/1 19/1/1 20/2/1
f 21/1/1 22/2/1 23/3/1 24/4/1
f 25/2/1 26/1/1 27/4/1 28/3/1

