# Tiled2Unity generated file. Do not modify by hand.
# Wavefront file for 'Level-1_mesh_0019.obj'

# Vertices (Count = 20)
v -15.68 -16 0
v -16 -16 0
v -16 -15.68 0
v -15.68 -15.68 0
v -9.28 -18.56 0
v -9.599999 -18.56 0
v -9.599999 -18.24 0
v -9.28 -18.24 0
v -9.599999 -20.8 0
v -9.92 -20.8 0
v -9.92 -20.48 0
v -9.599999 -20.48 0
v -12.16 -24 0
v -12.48 -24 0
v -12.48 -23.68 0
v -12.16 -23.68 0
v -9.599999 -25.28 0
v -9.92 -25.28 0
v -9.92 -24.96 0
v -9.599999 -24.96 0

# Texture cooridinates (Count = 4)
vt 1 0
vt 0 0
vt 0 1
vt 1 1

# Normal
vn 0 0 -1

# Mesh description
g Level-1_mesh_0019

# Faces
f 1/1/1 2/2/1 3/3/1 4/4/1
f 5/1/1 6/2/1 7/3/1 8/4/1
f 9/4/1 10/3/1 11/2/1 12/1/1
f 13/1/1 14/2/1 15/3/1 16/4/1
f 17/1/1 18/2/1 19/3/1 20/4/1

