# Tiled2Unity generated file. Do not modify by hand.
# Wavefront file for 'Level-1_mesh_0022.obj'

# Vertices (Count = 16)
v -6.72 -18.88 0
v -7.04 -18.88 0
v -7.04 -18.56 0
v -6.72 -18.56 0
v -6.72 -20.48 0
v -7.04 -20.48 0
v -7.04 -20.16 0
v -6.72 -20.16 0
v -4.8 -25.6 0
v -5.12 -25.6 0
v -5.12 -25.28 0
v -4.8 -25.28 0
v -4.8 -27.84 0
v -5.12 -27.84 0
v -5.12 -27.52 0
v -4.8 -27.52 0

# Texture cooridinates (Count = 4)
vt 1 0
vt 0 0
vt 0 1
vt 1 1

# Normal
vn 0 0 -1

# Mesh description
g Level-1_mesh_0022

# Faces
f 1/1/1 2/2/1 3/3/1 4/4/1
f 5/4/1 6/3/1 7/2/1 8/1/1
f 9/1/1 10/2/1 11/3/1 12/4/1
f 13/4/1 14/3/1 15/2/1 16/1/1

