# Tiled2Unity generated file. Do not modify by hand.
# Wavefront file for 'Level-1_mesh_0005.obj'

# Vertices (Count = 12)
v -12.8 -19.2 0
v -13.12 -19.2 0
v -13.12 -18.88 0
v -12.8 -18.88 0
v -5.12 -25.92 0
v -5.44 -25.92 0
v -5.44 -25.6 0
v -5.12 -25.6 0
v -5.12 -27.52 0
v -5.44 -27.52 0
v -5.44 -27.2 0
v -5.12 -27.2 0

# Texture cooridinates (Count = 4)
vt 1 0
vt 0 0
vt 0 1
vt 1 1

# Normal
vn 0 0 -1

# Mesh description
g Level-1_mesh_0005

# Faces
f 1/1/1 2/2/1 3/3/1 4/4/1
f 5/2/1 6/1/1 7/4/1 8/3/1
f 9/3/1 10/4/1 11/1/1 12/2/1

