# Tiled2Unity generated file. Do not modify by hand.
# Wavefront file for 'Level-1_mesh_0008.obj'

# Vertices (Count = 24)
v -19.2 -14.08 0
v -19.52 -14.08 0
v -19.52 -13.76 0
v -19.2 -13.76 0
v -6.72 -18.56 0
v -7.04 -18.56 0
v -7.04 -18.24 0
v -6.72 -18.24 0
v -13.12 -18.56 0
v -13.44 -18.56 0
v -13.44 -18.24 0
v -13.12 -18.24 0
v -6.72 -20.8 0
v -7.04 -20.8 0
v -7.04 -20.48 0
v -6.72 -20.48 0
v -4.8 -25.28 0
v -5.12 -25.28 0
v -5.12 -24.96 0
v -4.8 -24.96 0
v -4.8 -28.16 0
v -5.12 -28.16 0
v -5.12 -27.84 0
v -4.8 -27.84 0

# Texture cooridinates (Count = 4)
vt 1 0
vt 0 0
vt 0 1
vt 1 1

# Normal
vn 0 0 -1

# Mesh description
g Level-1_mesh_0008

# Faces
f 1/1/1 2/2/1 3/3/1 4/4/1
f 5/2/1 6/1/1 7/4/1 8/3/1
f 9/1/1 10/2/1 11/3/1 12/4/1
f 13/3/1 14/4/1 15/1/1 16/2/1
f 17/2/1 18/1/1 19/4/1 20/3/1
f 21/3/1 22/4/1 23/1/1 24/2/1

