# Tiled2Unity generated file. Do not modify by hand.
# Wavefront file for 'main-mnu_mesh_0007.obj'

# Vertices (Count = 12)
v -18.56 -3.84 0
v -18.88 -3.84 0
v -18.88 -3.52 0
v -18.56 -3.52 0
v -13.44 -7.68 0
v -13.76 -7.68 0
v -13.76 -7.36 0
v -13.44 -7.36 0
v -18.56 -7.68 0
v -18.88 -7.68 0
v -18.88 -7.36 0
v -18.56 -7.36 0

# Texture cooridinates (Count = 4)
vt 0 0
vt 1 0
vt 1 1
vt 0 1

# Normal
vn 0 0 -1

# Mesh description
g main-mnu_mesh_0007

# Faces
f 1/1/1 2/2/1 3/3/1 4/4/1
f 5/4/1 6/3/1 7/2/1 8/1/1
f 9/4/1 10/3/1 11/2/1 12/1/1

