# Tiled2Unity generated file. Do not modify by hand.
# Wavefront file for 'main-mnu_mesh_0011.obj'

# Vertices (Count = 184)
v -10.56 -4.16 0
v -10.88 -4.16 0
v -10.88 -3.84 0
v -10.56 -3.84 0
v -10.88 -4.16 0
v -11.2 -4.16 0
v -11.2 -3.84 0
v -10.88 -3.84 0
v -11.2 -4.16 0
v -11.52 -4.16 0
v -11.52 -3.84 0
v -11.2 -3.84 0
v -11.52 -4.16 0
v -11.84 -4.16 0
v -11.84 -3.84 0
v -11.52 -3.84 0
v -11.84 -4.16 0
v -12.16 -4.16 0
v -12.16 -3.84 0
v -11.84 -3.84 0
v -12.16 -4.16 0
v -12.48 -4.16 0
v -12.48 -3.84 0
v -12.16 -3.84 0
v -12.48 -4.16 0
v -12.8 -4.16 0
v -12.8 -3.84 0
v -12.48 -3.84 0
v -12.8 -4.16 0
v -13.12 -4.16 0
v -13.12 -3.84 0
v -12.8 -3.84 0
v -13.12 -4.16 0
v -13.44 -4.16 0
v -13.44 -3.84 0
v -13.12 -3.84 0
v -13.44 -4.16 0
v -13.76 -4.16 0
v -13.76 -3.84 0
v -13.44 -3.84 0
v -13.76 -4.16 0
v -14.08 -4.16 0
v -14.08 -3.84 0
v -13.76 -3.84 0
v -14.08 -4.16 0
v -14.4 -4.16 0
v -14.4 -3.84 0
v -14.08 -3.84 0
v -14.4 -4.16 0
v -14.72 -4.16 0
v -14.72 -3.84 0
v -14.4 -3.84 0
v -14.72 -4.16 0
v -15.04 -4.16 0
v -15.04 -3.84 0
v -14.72 -3.84 0
v -15.04 -4.16 0
v -15.36 -4.16 0
v -15.36 -3.84 0
v -15.04 -3.84 0
v -15.36 -4.16 0
v -15.68 -4.16 0
v -15.68 -3.84 0
v -15.36 -3.84 0
v -15.68 -4.16 0
v -16 -4.16 0
v -16 -3.84 0
v -15.68 -3.84 0
v -16 -4.16 0
v -16.32 -4.16 0
v -16.32 -3.84 0
v -16 -3.84 0
v -16.32 -4.16 0
v -16.64 -4.16 0
v -16.64 -3.84 0
v -16.32 -3.84 0
v -16.64 -4.16 0
v -16.96 -4.16 0
v -16.96 -3.84 0
v -16.64 -3.84 0
v -16.96 -4.16 0
v -17.28 -4.16 0
v -17.28 -3.84 0
v -16.96 -3.84 0
v -17.28 -4.16 0
v -17.6 -4.16 0
v -17.6 -3.84 0
v -17.28 -3.84 0
v -17.6 -4.16 0
v -17.92 -4.16 0
v -17.92 -3.84 0
v -17.6 -3.84 0
v -17.92 -4.16 0
v -18.24 -4.16 0
v -18.24 -3.84 0
v -17.92 -3.84 0
v -18.24 -4.16 0
v -18.56 -4.16 0
v -18.56 -3.84 0
v -18.24 -3.84 0
v -10.56 -7.36 0
v -10.88 -7.36 0
v -10.88 -7.04 0
v -10.56 -7.04 0
v -10.88 -7.36 0
v -11.2 -7.36 0
v -11.2 -7.04 0
v -10.88 -7.04 0
v -11.2 -7.36 0
v -11.52 -7.36 0
v -11.52 -7.04 0
v -11.2 -7.04 0
v -11.52 -7.36 0
v -11.84 -7.36 0
v -11.84 -7.04 0
v -11.52 -7.04 0
v -11.84 -7.36 0
v -12.16 -7.36 0
v -12.16 -7.04 0
v -11.84 -7.04 0
v -12.16 -7.36 0
v -12.48 -7.36 0
v -12.48 -7.04 0
v -12.16 -7.04 0
v -12.48 -7.36 0
v -12.8 -7.36 0
v -12.8 -7.04 0
v -12.48 -7.04 0
v -12.8 -7.36 0
v -13.12 -7.36 0
v -13.12 -7.04 0
v -12.8 -7.04 0
v -13.12 -7.36 0
v -13.44 -7.36 0
v -13.44 -7.04 0
v -13.12 -7.04 0
v -13.44 -7.36 0
v -13.76 -7.36 0
v -13.76 -7.04 0
v -13.44 -7.04 0
v -13.76 -7.36 0
v -14.08 -7.36 0
v -14.08 -7.04 0
v -13.76 -7.04 0
v -14.08 -7.36 0
v -14.4 -7.36 0
v -14.4 -7.04 0
v -14.08 -7.04 0
v -14.4 -7.36 0
v -14.72 -7.36 0
v -14.72 -7.04 0
v -14.4 -7.04 0
v -14.72 -7.36 0
v -15.04 -7.36 0
v -15.04 -7.04 0
v -14.72 -7.04 0
v -15.04 -7.36 0
v -15.36 -7.36 0
v -15.36 -7.04 0
v -15.04 -7.04 0
v -15.36 -7.36 0
v -15.68 -7.36 0
v -15.68 -7.04 0
v -15.36 -7.04 0
v -15.68 -7.36 0
v -16 -7.36 0
v -16 -7.04 0
v -15.68 -7.04 0
v -16 -7.36 0
v -16.32 -7.36 0
v -16.32 -7.04 0
v -16 -7.04 0
v -16.32 -7.36 0
v -16.64 -7.36 0
v -16.64 -7.04 0
v -16.32 -7.04 0
v -16.64 -7.36 0
v -16.96 -7.36 0
v -16.96 -7.04 0
v -16.64 -7.04 0
v -16.96 -7.36 0
v -17.28 -7.36 0
v -17.28 -7.04 0
v -16.96 -7.04 0

# Texture cooridinates (Count = 4)
vt 0 0
vt 1 0
vt 1 1
vt 0 1

# Normal
vn 0 0 -1

# Mesh description
g main-mnu_mesh_0011

# Faces
f 1/1/1 2/2/1 3/3/1 4/4/1
f 5/1/1 6/2/1 7/3/1 8/4/1
f 9/1/1 10/2/1 11/3/1 12/4/1
f 13/1/1 14/2/1 15/3/1 16/4/1
f 17/1/1 18/2/1 19/3/1 20/4/1
f 21/1/1 22/2/1 23/3/1 24/4/1
f 25/1/1 26/2/1 27/3/1 28/4/1
f 29/1/1 30/2/1 31/3/1 32/4/1
f 33/1/1 34/2/1 35/3/1 36/4/1
f 37/1/1 38/2/1 39/3/1 40/4/1
f 41/1/1 42/2/1 43/3/1 44/4/1
f 45/1/1 46/2/1 47/3/1 48/4/1
f 49/1/1 50/2/1 51/3/1 52/4/1
f 53/1/1 54/2/1 55/3/1 56/4/1
f 57/1/1 58/2/1 59/3/1 60/4/1
f 61/1/1 62/2/1 63/3/1 64/4/1
f 65/1/1 66/2/1 67/3/1 68/4/1
f 69/1/1 70/2/1 71/3/1 72/4/1
f 73/1/1 74/2/1 75/3/1 76/4/1
f 77/1/1 78/2/1 79/3/1 80/4/1
f 81/1/1 82/2/1 83/3/1 84/4/1
f 85/1/1 86/2/1 87/3/1 88/4/1
f 89/1/1 90/2/1 91/3/1 92/4/1
f 93/1/1 94/2/1 95/3/1 96/4/1
f 97/1/1 98/2/1 99/3/1 100/4/1
f 101/4/1 102/3/1 103/2/1 104/1/1
f 105/4/1 106/3/1 107/2/1 108/1/1
f 109/4/1 110/3/1 111/2/1 112/1/1
f 113/4/1 114/3/1 115/2/1 116/1/1
f 117/4/1 118/3/1 119/2/1 120/1/1
f 121/4/1 122/3/1 123/2/1 124/1/1
f 125/4/1 126/3/1 127/2/1 128/1/1
f 129/4/1 130/3/1 131/2/1 132/1/1
f 133/4/1 134/3/1 135/2/1 136/1/1
f 137/4/1 138/3/1 139/2/1 140/1/1
f 141/4/1 142/3/1 143/2/1 144/1/1
f 145/4/1 146/3/1 147/2/1 148/1/1
f 149/4/1 150/3/1 151/2/1 152/1/1
f 153/4/1 154/3/1 155/2/1 156/1/1
f 157/4/1 158/3/1 159/2/1 160/1/1
f 161/4/1 162/3/1 163/2/1 164/1/1
f 165/4/1 166/3/1 167/2/1 168/1/1
f 169/4/1 170/3/1 171/2/1 172/1/1
f 173/4/1 174/3/1 175/2/1 176/1/1
f 177/4/1 178/3/1 179/2/1 180/1/1
f 181/4/1 182/3/1 183/2/1 184/1/1

