# Tiled2Unity generated file. Do not modify by hand.
# Wavefront file for 'main-mnu_mesh_0017.obj'

# Vertices (Count = 32)
v -15.68 -5.12 0
v -16 -5.12 0
v -16 -4.8 0
v -15.68 -4.8 0
v -15.68 -5.44 0
v -16 -5.44 0
v -16 -5.12 0
v -15.68 -5.12 0
v -15.68 -5.76 0
v -16 -5.76 0
v -16 -5.44 0
v -15.68 -5.44 0
v -15.68 -6.08 0
v -16 -6.08 0
v -16 -5.76 0
v -15.68 -5.76 0
v -15.68 -6.4 0
v -16 -6.4 0
v -16 -6.08 0
v -15.68 -6.08 0
v -15.68 -6.72 0
v -16 -6.72 0
v -16 -6.4 0
v -15.68 -6.4 0
v -15.68 -7.04 0
v -16 -7.04 0
v -16 -6.72 0
v -15.68 -6.72 0
v -15.68 -7.36 0
v -16 -7.36 0
v -16 -7.04 0
v -15.68 -7.04 0

# Texture cooridinates (Count = 4)
vt 0 0
vt 1 0
vt 1 1
vt 0 1

# Normal
vn 0 0 -1

# Mesh description
g main-mnu_mesh_0017

# Faces
f 1/1/1 2/2/1 3/3/1 4/4/1
f 5/1/1 6/2/1 7/3/1 8/4/1
f 9/1/1 10/2/1 11/3/1 12/4/1
f 13/1/1 14/2/1 15/3/1 16/4/1
f 17/1/1 18/2/1 19/3/1 20/4/1
f 21/1/1 22/2/1 23/3/1 24/4/1
f 25/1/1 26/2/1 27/3/1 28/4/1
f 29/4/1 30/3/1 31/2/1 32/1/1

