# Tiled2Unity generated file. Do not modify by hand.
# Wavefront file for 'level-2_mesh_0013.obj'

# Vertices (Count = 508)
v -22.08 -3.52 0
v -22.4 -3.52 0
v -22.4 -3.2 0
v -22.08 -3.2 0
v -24.32 -3.52 0
v -24.64 -3.52 0
v -24.64 -3.2 0
v -24.32 -3.2 0
v -22.08 -3.84 0
v -22.4 -3.84 0
v -22.4 -3.52 0
v -22.08 -3.52 0
v -24.32 -3.84 0
v -24.64 -3.84 0
v -24.64 -3.52 0
v -24.32 -3.52 0
v -22.08 -4.16 0
v -22.4 -4.16 0
v -22.4 -3.84 0
v -22.08 -3.84 0
v -24.32 -4.16 0
v -24.64 -4.16 0
v -24.64 -3.84 0
v -24.32 -3.84 0
v -22.08 -4.48 0
v -22.4 -4.48 0
v -22.4 -4.16 0
v -22.08 -4.16 0
v -24.32 -4.48 0
v -24.64 -4.48 0
v -24.64 -4.16 0
v -24.32 -4.16 0
v -22.08 -4.8 0
v -22.4 -4.8 0
v -22.4 -4.48 0
v -22.08 -4.48 0
v -24.32 -4.8 0
v -24.64 -4.8 0
v -24.64 -4.48 0
v -24.32 -4.48 0
v -22.08 -5.12 0
v -22.4 -5.12 0
v -22.4 -4.8 0
v -22.08 -4.8 0
v -24.32 -5.12 0
v -24.64 -5.12 0
v -24.64 -4.8 0
v -24.32 -4.8 0
v -22.08 -5.44 0
v -22.4 -5.44 0
v -22.4 -5.12 0
v -22.08 -5.12 0
v -24.32 -5.44 0
v -24.64 -5.44 0
v -24.64 -5.12 0
v -24.32 -5.12 0
v -22.08 -5.76 0
v -22.4 -5.76 0
v -22.4 -5.44 0
v -22.08 -5.44 0
v -24.32 -5.76 0
v -24.64 -5.76 0
v -24.64 -5.44 0
v -24.32 -5.44 0
v -22.08 -6.08 0
v -22.4 -6.08 0
v -22.4 -5.76 0
v -22.08 -5.76 0
v -24.32 -6.08 0
v -24.64 -6.08 0
v -24.64 -5.76 0
v -24.32 -5.76 0
v -22.08 -6.4 0
v -22.4 -6.4 0
v -22.4 -6.08 0
v -22.08 -6.08 0
v -24.32 -6.4 0
v -24.64 -6.4 0
v -24.64 -6.08 0
v -24.32 -6.08 0
v -22.08 -6.72 0
v -22.4 -6.72 0
v -22.4 -6.4 0
v -22.08 -6.4 0
v -24.32 -6.72 0
v -24.64 -6.72 0
v -24.64 -6.4 0
v -24.32 -6.4 0
v -22.08 -7.04 0
v -22.4 -7.04 0
v -22.4 -6.72 0
v -22.08 -6.72 0
v -24.32 -7.04 0
v -24.64 -7.04 0
v -24.64 -6.72 0
v -24.32 -6.72 0
v -12.8 -7.36 0
v -13.12 -7.36 0
v -13.12 -7.04 0
v -12.8 -7.04 0
v -14.72 -7.36 0
v -15.04 -7.36 0
v -15.04 -7.04 0
v -14.72 -7.04 0
v -22.08 -7.36 0
v -22.4 -7.36 0
v -22.4 -7.04 0
v -22.08 -7.04 0
v -24.32 -7.36 0
v -24.64 -7.36 0
v -24.64 -7.04 0
v -24.32 -7.04 0
v -12.8 -7.68 0
v -13.12 -7.68 0
v -13.12 -7.36 0
v -12.8 -7.36 0
v -14.72 -7.68 0
v -15.04 -7.68 0
v -15.04 -7.36 0
v -14.72 -7.36 0
v -22.08 -7.68 0
v -22.4 -7.68 0
v -22.4 -7.36 0
v -22.08 -7.36 0
v -24.32 -7.68 0
v -24.64 -7.68 0
v -24.64 -7.36 0
v -24.32 -7.36 0
v -12.8 -8 0
v -13.12 -8 0
v -13.12 -7.68 0
v -12.8 -7.68 0
v -14.72 -8 0
v -15.04 -8 0
v -15.04 -7.68 0
v -14.72 -7.68 0
v -12.8 -8.32 0
v -13.12 -8.32 0
v -13.12 -8 0
v -12.8 -8 0
v -14.72 -8.32 0
v -15.04 -8.32 0
v -15.04 -8 0
v -14.72 -8 0
v -12.8 -8.639999 0
v -13.12 -8.639999 0
v -13.12 -8.32 0
v -12.8 -8.32 0
v -14.72 -8.639999 0
v -15.04 -8.639999 0
v -15.04 -8.32 0
v -14.72 -8.32 0
v -12.8 -8.96 0
v -13.12 -8.96 0
v -13.12 -8.639999 0
v -12.8 -8.639999 0
v -14.72 -8.96 0
v -15.04 -8.96 0
v -15.04 -8.639999 0
v -14.72 -8.639999 0
v -12.8 -9.28 0
v -13.12 -9.28 0
v -13.12 -8.96 0
v -12.8 -8.96 0
v -14.72 -9.28 0
v -15.04 -9.28 0
v -15.04 -8.96 0
v -14.72 -8.96 0
v -12.8 -9.599999 0
v -13.12 -9.599999 0
v -13.12 -9.28 0
v -12.8 -9.28 0
v -14.72 -9.599999 0
v -15.04 -9.599999 0
v -15.04 -9.28 0
v -14.72 -9.28 0
v -12.8 -9.92 0
v -13.12 -9.92 0
v -13.12 -9.599999 0
v -12.8 -9.599999 0
v -14.72 -9.92 0
v -15.04 -9.92 0
v -15.04 -9.599999 0
v -14.72 -9.599999 0
v -18.56 -9.92 0
v -18.88 -9.92 0
v -18.88 -9.599999 0
v -18.56 -9.599999 0
v -22.4 -9.92 0
v -22.72 -9.92 0
v -22.72 -9.599999 0
v -22.4 -9.599999 0
v -27.84 -9.92 0
v -28.16 -9.92 0
v -28.16 -9.599999 0
v -27.84 -9.599999 0
v -12.8 -10.24 0
v -13.12 -10.24 0
v -13.12 -9.92 0
v -12.8 -9.92 0
v -14.72 -10.24 0
v -15.04 -10.24 0
v -15.04 -9.92 0
v -14.72 -9.92 0
v -18.56 -10.24 0
v -18.88 -10.24 0
v -18.88 -9.92 0
v -18.56 -9.92 0
v -24.32 -10.24 0
v -24.64 -10.24 0
v -24.64 -9.92 0
v -24.32 -9.92 0
v -27.84 -10.24 0
v -28.16 -10.24 0
v -28.16 -9.92 0
v -27.84 -9.92 0
v -12.8 -10.56 0
v -13.12 -10.56 0
v -13.12 -10.24 0
v -12.8 -10.24 0
v -14.72 -10.56 0
v -15.04 -10.56 0
v -15.04 -10.24 0
v -14.72 -10.24 0
v -18.56 -10.56 0
v -18.88 -10.56 0
v -18.88 -10.24 0
v -18.56 -10.24 0
v -24.32 -10.56 0
v -24.64 -10.56 0
v -24.64 -10.24 0
v -24.32 -10.24 0
v -27.84 -10.56 0
v -28.16 -10.56 0
v -28.16 -10.24 0
v -27.84 -10.24 0
v -12.8 -10.88 0
v -13.12 -10.88 0
v -13.12 -10.56 0
v -12.8 -10.56 0
v -14.72 -10.88 0
v -15.04 -10.88 0
v -15.04 -10.56 0
v -14.72 -10.56 0
v -18.56 -10.88 0
v -18.88 -10.88 0
v -18.88 -10.56 0
v -18.56 -10.56 0
v -27.84 -10.88 0
v -28.16 -10.88 0
v -28.16 -10.56 0
v -27.84 -10.56 0
v -12.8 -11.2 0
v -13.12 -11.2 0
v -13.12 -10.88 0
v -12.8 -10.88 0
v -14.72 -11.2 0
v -15.04 -11.2 0
v -15.04 -10.88 0
v -14.72 -10.88 0
v -18.56 -11.2 0
v -18.88 -11.2 0
v -18.88 -10.88 0
v -18.56 -10.88 0
v -27.84 -11.2 0
v -28.16 -11.2 0
v -28.16 -10.88 0
v -27.84 -10.88 0
v -21.44 -13.12 0
v -21.76 -13.12 0
v -21.76 -12.8 0
v -21.44 -12.8 0
v -24.96 -13.12 0
v -25.28 -13.12 0
v -25.28 -12.8 0
v -24.96 -12.8 0
v -2.88 -13.44 0
v -3.2 -13.44 0
v -3.2 -13.12 0
v -2.88 -13.12 0
v -21.44 -13.44 0
v -21.76 -13.44 0
v -21.76 -13.12 0
v -21.44 -13.12 0
v -2.88 -13.76 0
v -3.2 -13.76 0
v -3.2 -13.44 0
v -2.88 -13.44 0
v -21.44 -13.76 0
v -21.76 -13.76 0
v -21.76 -13.44 0
v -21.44 -13.44 0
v -2.88 -14.08 0
v -3.2 -14.08 0
v -3.2 -13.76 0
v -2.88 -13.76 0
v -21.44 -14.08 0
v -21.76 -14.08 0
v -21.76 -13.76 0
v -21.44 -13.76 0
v -2.88 -14.4 0
v -3.2 -14.4 0
v -3.2 -14.08 0
v -2.88 -14.08 0
v -21.44 -14.4 0
v -21.76 -14.4 0
v -21.76 -14.08 0
v -21.44 -14.08 0
v -2.88 -14.72 0
v -3.2 -14.72 0
v -3.2 -14.4 0
v -2.88 -14.4 0
v -21.44 -14.72 0
v -21.76 -14.72 0
v -21.76 -14.4 0
v -21.44 -14.4 0
v -2.88 -15.04 0
v -3.2 -15.04 0
v -3.2 -14.72 0
v -2.88 -14.72 0
v -21.44 -15.04 0
v -21.76 -15.04 0
v -21.76 -14.72 0
v -21.44 -14.72 0
v -2.88 -15.36 0
v -3.2 -15.36 0
v -3.2 -15.04 0
v -2.88 -15.04 0
v -21.44 -15.36 0
v -21.76 -15.36 0
v -21.76 -15.04 0
v -21.44 -15.04 0
v -2.88 -15.68 0
v -3.2 -15.68 0
v -3.2 -15.36 0
v -2.88 -15.36 0
v -5.12 -15.68 0
v -5.44 -15.68 0
v -5.44 -15.36 0
v -5.12 -15.36 0
v -21.44 -15.68 0
v -21.76 -15.68 0
v -21.76 -15.36 0
v -21.44 -15.36 0
v -2.88 -16 0
v -3.2 -16 0
v -3.2 -15.68 0
v -2.88 -15.68 0
v -5.12 -16 0
v -5.44 -16 0
v -5.44 -15.68 0
v -5.12 -15.68 0
v -21.44 -16 0
v -21.76 -16 0
v -21.76 -15.68 0
v -21.44 -15.68 0
v -2.88 -16.32 0
v -3.2 -16.32 0
v -3.2 -16 0
v -2.88 -16 0
v -5.12 -16.32 0
v -5.44 -16.32 0
v -5.44 -16 0
v -5.12 -16 0
v -21.44 -16.32 0
v -21.76 -16.32 0
v -21.76 -16 0
v -21.44 -16 0
v -2.88 -16.64 0
v -3.2 -16.64 0
v -3.2 -16.32 0
v -2.88 -16.32 0
v -5.12 -16.64 0
v -5.44 -16.64 0
v -5.44 -16.32 0
v -5.12 -16.32 0
v -21.44 -16.64 0
v -21.76 -16.64 0
v -21.76 -16.32 0
v -21.44 -16.32 0
v -2.88 -16.96 0
v -3.2 -16.96 0
v -3.2 -16.64 0
v -2.88 -16.64 0
v -5.12 -16.96 0
v -5.44 -16.96 0
v -5.44 -16.64 0
v -5.12 -16.64 0
v -21.44 -16.96 0
v -21.76 -16.96 0
v -21.76 -16.64 0
v -21.44 -16.64 0
v -2.88 -17.28 0
v -3.2 -17.28 0
v -3.2 -16.96 0
v -2.88 -16.96 0
v -5.12 -17.28 0
v -5.44 -17.28 0
v -5.44 -16.96 0
v -5.12 -16.96 0
v -21.44 -17.28 0
v -21.76 -17.28 0
v -21.76 -16.96 0
v -21.44 -16.96 0
v -2.88 -17.6 0
v -3.2 -17.6 0
v -3.2 -17.28 0
v -2.88 -17.28 0
v -5.12 -17.6 0
v -5.44 -17.6 0
v -5.44 -17.28 0
v -5.12 -17.28 0
v -21.44 -17.6 0
v -21.76 -17.6 0
v -21.76 -17.28 0
v -21.44 -17.28 0
v -2.88 -17.92 0
v -3.2 -17.92 0
v -3.2 -17.6 0
v -2.88 -17.6 0
v -5.12 -17.92 0
v -5.44 -17.92 0
v -5.44 -17.6 0
v -5.12 -17.6 0
v -21.44 -17.92 0
v -21.76 -17.92 0
v -21.76 -17.6 0
v -21.44 -17.6 0
v -2.88 -18.24 0
v -3.2 -18.24 0
v -3.2 -17.92 0
v -2.88 -17.92 0
v -5.12 -18.24 0
v -5.44 -18.24 0
v -5.44 -17.92 0
v -5.12 -17.92 0
v -21.44 -18.24 0
v -21.76 -18.24 0
v -21.76 -17.92 0
v -21.44 -17.92 0
v -2.88 -18.56 0
v -3.2 -18.56 0
v -3.2 -18.24 0
v -2.88 -18.24 0
v -5.12 -18.56 0
v -5.44 -18.56 0
v -5.44 -18.24 0
v -5.12 -18.24 0
v -21.44 -18.56 0
v -21.76 -18.56 0
v -21.76 -18.24 0
v -21.44 -18.24 0
v -2.88 -18.88 0
v -3.2 -18.88 0
v -3.2 -18.56 0
v -2.88 -18.56 0
v -5.12 -18.88 0
v -5.44 -18.88 0
v -5.44 -18.56 0
v -5.12 -18.56 0
v -21.44 -18.88 0
v -21.76 -18.88 0
v -21.76 -18.56 0
v -21.44 -18.56 0
v -12.16 -19.84 0
v -12.48 -19.84 0
v -12.48 -19.52 0
v -12.16 -19.52 0
v -15.36 -19.84 0
v -15.68 -19.84 0
v -15.68 -19.52 0
v -15.36 -19.52 0
v -18.24 -19.84 0
v -18.56 -19.84 0
v -18.56 -19.52 0
v -18.24 -19.52 0
v -12.16 -20.16 0
v -12.48 -20.16 0
v -12.48 -19.84 0
v -12.16 -19.84 0
v -15.36 -20.16 0
v -15.68 -20.16 0
v -15.68 -19.84 0
v -15.36 -19.84 0
v -18.24 -20.16 0
v -18.56 -20.16 0
v -18.56 -19.84 0
v -18.24 -19.84 0
v -6.72 -21.12 0
v -7.04 -21.12 0
v -7.04 -20.8 0
v -6.72 -20.8 0
v -13.44 -22.08 0
v -13.76 -22.08 0
v -13.76 -21.76 0
v -13.44 -21.76 0
v -20.48 -22.08 0
v -20.8 -22.08 0
v -20.8 -21.76 0
v -20.48 -21.76 0
v -13.44 -22.4 0
v -13.76 -22.4 0
v -13.76 -22.08 0
v -13.44 -22.08 0
v -20.48 -22.4 0
v -20.8 -22.4 0
v -20.8 -22.08 0
v -20.48 -22.08 0

# Texture cooridinates (Count = 4)
vt 0 1
vt 1 1
vt 1 0
vt 0 0

# Normal
vn 0 0 -1

# Mesh description
g level-2_mesh_0013

# Faces
f 1/1/1 2/2/1 3/3/1 4/4/1
f 5/2/1 6/1/1 7/4/1 8/3/1
f 9/1/1 10/2/1 11/3/1 12/4/1
f 13/2/1 14/1/1 15/4/1 16/3/1
f 17/4/1 18/3/1 19/2/1 20/1/1
f 21/3/1 22/4/1 23/1/1 24/2/1
f 25/4/1 26/3/1 27/2/1 28/1/1
f 29/3/1 30/4/1 31/1/1 32/2/1
f 33/4/1 34/3/1 35/2/1 36/1/1
f 37/3/1 38/4/1 39/1/1 40/2/1
f 41/4/1 42/3/1 43/2/1 44/1/1
f 45/3/1 46/4/1 47/1/1 48/2/1
f 49/4/1 50/3/1 51/2/1 52/1/1
f 53/3/1 54/4/1 55/1/1 56/2/1
f 57/4/1 58/3/1 59/2/1 60/1/1
f 61/3/1 62/4/1 63/1/1 64/2/1
f 65/4/1 66/3/1 67/2/1 68/1/1
f 69/3/1 70/4/1 71/1/1 72/2/1
f 73/4/1 74/3/1 75/2/1 76/1/1
f 77/3/1 78/4/1 79/1/1 80/2/1
f 81/4/1 82/3/1 83/2/1 84/1/1
f 85/3/1 86/4/1 87/1/1 88/2/1
f 89/4/1 90/3/1 91/2/1 92/1/1
f 93/3/1 94/4/1 95/1/1 96/2/1
f 97/1/1 98/2/1 99/3/1 100/4/1
f 101/2/1 102/1/1 103/4/1 104/3/1
f 105/4/1 106/3/1 107/2/1 108/1/1
f 109/3/1 110/4/1 111/1/1 112/2/1
f 113/1/1 114/2/1 115/3/1 116/4/1
f 117/2/1 118/1/1 119/4/1 120/3/1
f 121/4/1 122/3/1 123/2/1 124/1/1
f 125/3/1 126/4/1 127/1/1 128/2/1
f 129/1/1 130/2/1 131/3/1 132/4/1
f 133/2/1 134/1/1 135/4/1 136/3/1
f 137/1/1 138/2/1 139/3/1 140/4/1
f 141/2/1 142/1/1 143/4/1 144/3/1
f 145/1/1 146/2/1 147/3/1 148/4/1
f 149/2/1 150/1/1 151/4/1 152/3/1
f 153/1/1 154/2/1 155/3/1 156/4/1
f 157/2/1 158/1/1 159/4/1 160/3/1
f 161/1/1 162/2/1 163/3/1 164/4/1
f 165/2/1 166/1/1 167/4/1 168/3/1
f 169/1/1 170/2/1 171/3/1 172/4/1
f 173/2/1 174/1/1 175/4/1 176/3/1
f 177/1/1 178/2/1 179/3/1 180/4/1
f 181/2/1 182/1/1 183/4/1 184/3/1
f 185/4/1 186/3/1 187/2/1 188/1/1
f 189/4/1 190/3/1 191/2/1 192/1/1
f 193/3/1 194/4/1 195/1/1 196/2/1
f 197/4/1 198/3/1 199/2/1 200/1/1
f 201/3/1 202/4/1 203/1/1 204/2/1
f 205/4/1 206/3/1 207/2/1 208/1/1
f 209/4/1 210/3/1 211/2/1 212/1/1
f 213/3/1 214/4/1 215/1/1 216/2/1
f 217/4/1 218/3/1 219/2/1 220/1/1
f 221/3/1 222/4/1 223/1/1 224/2/1
f 225/4/1 226/3/1 227/2/1 228/1/1
f 229/4/1 230/3/1 231/2/1 232/1/1
f 233/3/1 234/4/1 235/1/1 236/2/1
f 237/4/1 238/3/1 239/2/1 240/1/1
f 241/3/1 242/4/1 243/1/1 244/2/1
f 245/4/1 246/3/1 247/2/1 248/1/1
f 249/3/1 250/4/1 251/1/1 252/2/1
f 253/4/1 254/3/1 255/2/1 256/1/1
f 257/3/1 258/4/1 259/1/1 260/2/1
f 261/4/1 262/3/1 263/2/1 264/1/1
f 265/3/1 266/4/1 267/1/1 268/2/1
f 269/1/1 270/2/1 271/3/1 272/4/1
f 273/2/1 274/1/1 275/4/1 276/3/1
f 277/4/1 278/3/1 279/2/1 280/1/1
f 281/1/1 282/2/1 283/3/1 284/4/1
f 285/4/1 286/3/1 287/2/1 288/1/1
f 289/4/1 290/3/1 291/2/1 292/1/1
f 293/4/1 294/3/1 295/2/1 296/1/1
f 297/4/1 298/3/1 299/2/1 300/1/1
f 301/4/1 302/3/1 303/2/1 304/1/1
f 305/4/1 306/3/1 307/2/1 308/1/1
f 309/4/1 310/3/1 311/2/1 312/1/1
f 313/4/1 314/3/1 315/2/1 316/1/1
f 317/4/1 318/3/1 319/2/1 320/1/1
f 321/4/1 322/3/1 323/2/1 324/1/1
f 325/4/1 326/3/1 327/2/1 328/1/1
f 329/4/1 330/3/1 331/2/1 332/1/1
f 333/4/1 334/3/1 335/2/1 336/1/1
f 337/2/1 338/1/1 339/4/1 340/3/1
f 341/4/1 342/3/1 343/2/1 344/1/1
f 345/4/1 346/3/1 347/2/1 348/1/1
f 349/3/1 350/4/1 351/1/1 352/2/1
f 353/4/1 354/3/1 355/2/1 356/1/1
f 357/4/1 358/3/1 359/2/1 360/1/1
f 361/3/1 362/4/1 363/1/1 364/2/1
f 365/4/1 366/3/1 367/2/1 368/1/1
f 369/4/1 370/3/1 371/2/1 372/1/1
f 373/3/1 374/4/1 375/1/1 376/2/1
f 377/4/1 378/3/1 379/2/1 380/1/1
f 381/4/1 382/3/1 383/2/1 384/1/1
f 385/3/1 386/4/1 387/1/1 388/2/1
f 389/4/1 390/3/1 391/2/1 392/1/1
f 393/4/1 394/3/1 395/2/1 396/1/1
f 397/3/1 398/4/1 399/1/1 400/2/1
f 401/4/1 402/3/1 403/2/1 404/1/1
f 405/4/1 406/3/1 407/2/1 408/1/1
f 409/3/1 410/4/1 411/1/1 412/2/1
f 413/4/1 414/3/1 415/2/1 416/1/1
f 417/4/1 418/3/1 419/2/1 420/1/1
f 421/3/1 422/4/1 423/1/1 424/2/1
f 425/4/1 426/3/1 427/2/1 428/1/1
f 429/4/1 430/3/1 431/2/1 432/1/1
f 433/3/1 434/4/1 435/1/1 436/2/1
f 437/4/1 438/3/1 439/2/1 440/1/1
f 441/4/1 442/3/1 443/2/1 444/1/1
f 445/3/1 446/4/1 447/1/1 448/2/1
f 449/4/1 450/3/1 451/2/1 452/1/1
f 453/4/1 454/3/1 455/2/1 456/1/1
f 457/3/1 458/4/1 459/1/1 460/2/1
f 461/4/1 462/3/1 463/2/1 464/1/1
f 465/4/1 466/3/1 467/2/1 468/1/1
f 469/4/1 470/3/1 471/2/1 472/1/1
f 473/4/1 474/3/1 475/2/1 476/1/1
f 477/4/1 478/3/1 479/2/1 480/1/1
f 481/4/1 482/3/1 483/2/1 484/1/1
f 485/4/1 486/3/1 487/2/1 488/1/1
f 489/4/1 490/3/1 491/2/1 492/1/1
f 493/1/1 494/2/1 495/3/1 496/4/1
f 497/1/1 498/2/1 499/3/1 500/4/1
f 501/1/1 502/2/1 503/3/1 504/4/1
f 505/1/1 506/2/1 507/3/1 508/4/1

