# Tiled2Unity generated file. Do not modify by hand.
# Wavefront file for 'level-2_mesh_0008.obj'

# Vertices (Count = 40)
v -7.04 -2.56 0
v -7.36 -2.56 0
v -7.36 -2.24 0
v -7.04 -2.24 0
v -11.2 -2.56 0
v -11.52 -2.56 0
v -11.52 -2.24 0
v -11.2 -2.24 0
v -7.04 -5.12 0
v -7.36 -5.12 0
v -7.36 -4.8 0
v -7.04 -4.8 0
v -11.2 -5.12 0
v -11.52 -5.12 0
v -11.52 -4.8 0
v -11.2 -4.8 0
v -20.16 -9.28 0
v -20.48 -9.28 0
v -20.48 -8.96 0
v -20.16 -8.96 0
v -26.24 -9.28 0
v -26.56 -9.28 0
v -26.56 -8.96 0
v -26.24 -8.96 0
v -20.16 -11.84 0
v -20.48 -11.84 0
v -20.48 -11.52 0
v -20.16 -11.52 0
v -26.24 -11.84 0
v -26.56 -11.84 0
v -26.56 -11.52 0
v -26.24 -11.52 0
v -10.88 -15.36 0
v -11.2 -15.36 0
v -11.2 -15.04 0
v -10.88 -15.04 0
v -6.4 -23.04 0
v -6.72 -23.04 0
v -6.72 -22.72 0
v -6.4 -22.72 0

# Texture cooridinates (Count = 4)
vt 0 0
vt 1 0
vt 1 1
vt 0 1

# Normal
vn 0 0 -1

# Mesh description
g level-2_mesh_0008

# Faces
f 1/1/1 2/2/1 3/3/1 4/4/1
f 5/2/1 6/1/1 7/4/1 8/3/1
f 9/4/1 10/3/1 11/2/1 12/1/1
f 13/3/1 14/4/1 15/1/1 16/2/1
f 17/2/1 18/1/1 19/4/1 20/3/1
f 21/1/1 22/2/1 23/3/1 24/4/1
f 25/3/1 26/4/1 27/1/1 28/2/1
f 29/4/1 30/3/1 31/2/1 32/1/1
f 33/3/1 34/4/1 35/1/1 36/2/1
f 37/4/1 38/3/1 39/2/1 40/1/1

