# Tiled2Unity generated file. Do not modify by hand.
# Wavefront file for 'level-2_mesh_0018.obj'

# Vertices (Count = 48)
v -22.08 -10.88 0
v -22.4 -10.88 0
v -22.4 -10.56 0
v -22.08 -10.56 0
v -24 -10.88 0
v -24.32 -10.88 0
v -24.32 -10.56 0
v -24 -10.56 0
v -12.48 -12.8 0
v -12.8 -12.8 0
v -12.8 -12.48 0
v -12.48 -12.48 0
v -14.4 -13.76 0
v -14.72 -13.76 0
v -14.72 -13.44 0
v -14.4 -13.44 0
v -14.4 -14.4 0
v -14.72 -14.4 0
v -14.72 -14.08 0
v -14.4 -14.08 0
v -23.04 -18.24 0
v -23.36 -18.24 0
v -23.36 -17.92 0
v -23.04 -17.92 0
v -15.04 -20.48 0
v -15.36 -20.48 0
v -15.36 -20.16 0
v -15.04 -20.16 0
v -17.92 -20.48 0
v -18.24 -20.48 0
v -18.24 -20.16 0
v -17.92 -20.16 0
v -6.4 -21.44 0
v -6.72 -21.44 0
v -6.72 -21.12 0
v -6.4 -21.12 0
v -13.12 -21.76 0
v -13.44 -21.76 0
v -13.44 -21.44 0
v -13.12 -21.44 0
v -20.16 -21.76 0
v -20.48 -21.76 0
v -20.48 -21.44 0
v -20.16 -21.44 0
v -2.56 -22.08 0
v -2.88 -22.08 0
v -2.88 -21.76 0
v -2.56 -21.76 0

# Texture cooridinates (Count = 4)
vt 0 0
vt 1 0
vt 1 1
vt 0 1

# Normal
vn 0 0 -1

# Mesh description
g level-2_mesh_0018

# Faces
f 1/1/1 2/2/1 3/3/1 4/4/1
f 5/1/1 6/2/1 7/3/1 8/4/1
f 9/2/1 10/1/1 11/4/1 12/3/1
f 13/1/1 14/2/1 15/3/1 16/4/1
f 17/1/1 18/2/1 19/3/1 20/4/1
f 21/1/1 22/2/1 23/3/1 24/4/1
f 25/1/1 26/2/1 27/3/1 28/4/1
f 29/1/1 30/2/1 31/3/1 32/4/1
f 33/1/1 34/2/1 35/3/1 36/4/1
f 37/4/1 38/3/1 39/2/1 40/1/1
f 41/4/1 42/3/1 43/2/1 44/1/1
f 45/1/1 46/2/1 47/3/1 48/4/1

