# Tiled2Unity generated file. Do not modify by hand.
# Wavefront file for 'level-2_mesh_0019.obj'

# Vertices (Count = 32)
v -22.08 -11.2 0
v -22.4 -11.2 0
v -22.4 -10.88 0
v -22.08 -10.88 0
v -24 -11.2 0
v -24.32 -11.2 0
v -24.32 -10.88 0
v -24 -10.88 0
v -15.04 -20.8 0
v -15.36 -20.8 0
v -15.36 -20.48 0
v -15.04 -20.48 0
v -17.92 -20.8 0
v -18.24 -20.8 0
v -18.24 -20.48 0
v -17.92 -20.48 0
v -13.12 -21.44 0
v -13.44 -21.44 0
v -13.44 -21.12 0
v -13.12 -21.12 0
v -20.16 -21.44 0
v -20.48 -21.44 0
v -20.48 -21.12 0
v -20.16 -21.12 0
v -6.4 -21.76 0
v -6.72 -21.76 0
v -6.72 -21.44 0
v -6.4 -21.44 0
v -2.56 -22.4 0
v -2.88 -22.4 0
v -2.88 -22.08 0
v -2.56 -22.08 0

# Texture cooridinates (Count = 4)
vt 0 0
vt 1 0
vt 1 1
vt 0 1

# Normal
vn 0 0 -1

# Mesh description
g level-2_mesh_0019

# Faces
f 1/1/1 2/2/1 3/3/1 4/4/1
f 5/1/1 6/2/1 7/3/1 8/4/1
f 9/1/1 10/2/1 11/3/1 12/4/1
f 13/1/1 14/2/1 15/3/1 16/4/1
f 17/4/1 18/3/1 19/2/1 20/1/1
f 21/4/1 22/3/1 23/2/1 24/1/1
f 25/1/1 26/2/1 27/3/1 28/4/1
f 29/1/1 30/2/1 31/3/1 32/4/1

