# Tiled2Unity generated file. Do not modify by hand.
# Wavefront file for 'level-2_mesh_0005.obj'

# Vertices (Count = 104)
v -1.92 -1.92 0
v -2.24 -1.92 0
v -2.24 -1.6 0
v -1.92 -1.6 0
v -7.04 -1.92 0
v -7.36 -1.92 0
v -7.36 -1.6 0
v -7.04 -1.6 0
v -11.2 -1.92 0
v -11.52 -1.92 0
v -11.52 -1.6 0
v -11.2 -1.6 0
v -16.32 -1.92 0
v -16.64 -1.92 0
v -16.64 -1.6 0
v -16.32 -1.6 0
v -1.92 -5.76 0
v -2.24 -5.76 0
v -2.24 -5.44 0
v -1.92 -5.44 0
v -7.04 -5.76 0
v -7.36 -5.76 0
v -7.36 -5.44 0
v -7.04 -5.44 0
v -11.2 -6.72 0
v -11.52 -6.72 0
v -11.52 -6.4 0
v -11.2 -6.4 0
v -16.32 -6.72 0
v -16.64 -6.72 0
v -16.64 -6.4 0
v -16.32 -6.4 0
v -20.16 -8.32 0
v -20.48 -8.32 0
v -20.48 -8 0
v -20.16 -8 0
v -26.24 -8.32 0
v -26.56 -8.32 0
v -26.56 -8 0
v -26.24 -8 0
v -24 -10.56 0
v -24.32 -10.56 0
v -24.32 -10.24 0
v -24 -10.24 0
v -10.88 -11.84 0
v -11.2 -11.84 0
v -11.2 -11.52 0
v -10.88 -11.52 0
v -16.32 -11.84 0
v -16.64 -11.84 0
v -16.64 -11.52 0
v -16.32 -11.52 0
v -20.16 -12.48 0
v -20.48 -12.48 0
v -20.48 -12.16 0
v -20.16 -12.16 0
v -26.24 -12.48 0
v -26.56 -12.48 0
v -26.56 -12.16 0
v -26.24 -12.16 0
v -10.88 -16 0
v -11.2 -16 0
v -11.2 -15.68 0
v -10.88 -15.68 0
v -16.32 -16 0
v -16.64 -16 0
v -16.64 -15.68 0
v -16.32 -15.68 0
v -1.28 -19.52 0
v -1.6 -19.52 0
v -1.6 -19.2 0
v -1.28 -19.2 0
v -6.4 -19.52 0
v -6.72 -19.52 0
v -6.72 -19.2 0
v -6.4 -19.2 0
v -15.04 -19.52 0
v -15.36 -19.52 0
v -15.36 -19.2 0
v -15.04 -19.2 0
v -17.92 -19.52 0
v -18.24 -19.52 0
v -18.24 -19.2 0
v -17.92 -19.2 0
v -13.12 -22.72 0
v -13.44 -22.72 0
v -13.44 -22.4 0
v -13.12 -22.4 0
v -20.16 -22.72 0
v -20.48 -22.72 0
v -20.48 -22.4 0
v -20.16 -22.4 0
v -24.96 -22.72 0
v -25.28 -22.72 0
v -25.28 -22.4 0
v -24.96 -22.4 0
v -1.28 -23.68 0
v -1.6 -23.68 0
v -1.6 -23.36 0
v -1.28 -23.36 0
v -6.4 -23.68 0
v -6.72 -23.68 0
v -6.72 -23.36 0
v -6.4 -23.36 0

# Texture cooridinates (Count = 4)
vt 1 0
vt 0 0
vt 0 1
vt 1 1

# Normal
vn 0 0 -1

# Mesh description
g level-2_mesh_0005

# Faces
f 1/1/1 2/2/1 3/3/1 4/4/1
f 5/2/1 6/1/1 7/4/1 8/3/1
f 9/1/1 10/2/1 11/3/1 12/4/1
f 13/2/1 14/1/1 15/4/1 16/3/1
f 17/4/1 18/3/1 19/2/1 20/1/1
f 21/3/1 22/4/1 23/1/1 24/2/1
f 25/4/1 26/3/1 27/2/1 28/1/1
f 29/3/1 30/4/1 31/1/1 32/2/1
f 33/1/1 34/2/1 35/3/1 36/4/1
f 37/2/1 38/1/1 39/4/1 40/3/1
f 41/2/1 42/1/1 43/4/1 44/3/1
f 45/1/1 46/2/1 47/3/1 48/4/1
f 49/2/1 50/1/1 51/4/1 52/3/1
f 53/4/1 54/3/1 55/2/1 56/1/1
f 57/3/1 58/4/1 59/1/1 60/2/1
f 61/4/1 62/3/1 63/2/1 64/1/1
f 65/3/1 66/4/1 67/1/1 68/2/1
f 69/1/1 70/2/1 71/3/1 72/4/1
f 73/2/1 74/1/1 75/4/1 76/3/1
f 77/2/1 78/1/1 79/4/1 80/3/1
f 81/2/1 82/1/1 83/4/1 84/3/1
f 85/3/1 86/4/1 87/1/1 88/2/1
f 89/3/1 90/4/1 91/1/1 92/2/1
f 93/3/1 94/4/1 95/1/1 96/2/1
f 97/4/1 98/3/1 99/2/1 100/1/1
f 101/3/1 102/4/1 103/1/1 104/2/1

